<?xml version="1.0" encoding="utf-8"?>
<!-- Svg Vector Icons : http://www.onlinewebfonts.com/icon -->
<!DOCTYPE svg PUBLIC "-//W3C//DTD SVG 1.1//EN" "http://www.w3.org/Graphics/SVG/1.1/DTD/svg11.dtd">
<svg version="1.1" xmlns="http://www.w3.org/2000/svg" xmlns:xlink="http://www.w3.org/1999/xlink" x="0px" y="0px" viewBox="0 0 1000 1000" enable-background="new 0 0 1000 1000" xml:space="preserve">
<metadata> Svg Vector Icons : http://www.onlinewebfonts.com/icon </metadata>
<g><path d="M975.3,159.7L874.4,260.6L738.9,125L839.8,24.1c18.1-18.1,49.7-18.1,67.8,0l67.8,67.8C994.9,111.5,994.9,141.6,975.3,159.7z M264.5,599.4L400,734.9l-180.7,45.2L264.5,599.4z M839.8,295.2L433.2,700.3L297.6,564.8l406.6-405.1L839.8,295.2z M106.4,156.6v737.9h737.9V361.5l96.4-96.4v676.2c0,27.1-21.1,48.2-48.2,48.2H58.2c-27.1,0-48.2-21.1-48.2-48.2V108.5c0-27.1,21.1-48.2,48.2-48.2h679.2L641,156.6H106.4z"/></g>
</svg>