<?xml version="1.0" encoding="utf-8"?>
<!DOCTYPE svg PUBLIC "-//W3C//DTD SVG 1.1//EN" "http://www.w3.org/Graphics/SVG/1.1/DTD/svg11.dtd">
<svg version="1.1" id="Layer_1" xmlns="http://www.w3.org/2000/svg" xmlns:xlink="http://www.w3.org/1999/xlink" x="0px" y="0px"
width="592px" height="592px" viewBox="0 0 592 592" enable-background="new 0 0 592 592" xml:space="preserve">
<rect x="0" y="0" width="592" height="592" fill="rgb(255,255,255)" /><g transform="translate(32,32)"><g transform="translate(160,0) scale(0.16,0.16)"><g transform="" style="fill: rgb(0, 0, 0);">
<polygon points="99.999,49.999 99.998,49.999 49.999,0 0,49.999 -0.001,49.999 -0.001,50 0,50 49.999,99.999 99.998,50 99.999,50 
	99.998,50 "/>
</g></g><g transform="translate(192,0) scale(0.16,0.16)"><g transform="" style="fill: rgb(0, 0, 0);">
<polygon points="100,100 50,0 50,0 0,100 "/>
</g></g><g transform="translate(224,0) scale(0.16,0.16)"><g transform="" style="fill: rgb(0, 0, 0);">
<polygon points="100,100 0,50 0,50 100,0 "/>
</g></g><g transform="translate(240,0) scale(0.16,0.16)"><g transform="" style="fill: rgb(0, 0, 0);">
<rect width="100" height="100"/>
</g></g><g transform="translate(256,0) scale(0.16,0.16)"><g transform="" style="fill: rgb(0, 0, 0);">
<g>
	<path d="M100,34.375c0-9.505-3.354-17.611-10.059-24.316S75.131,0,65.625,0H0v100h100V34.375z"/>
</g>
</g></g><g transform="translate(304,0) scale(0.16,0.16)"><g transform="" style="fill: rgb(0, 0, 0);">
<polygon points="99.999,49.999 99.998,49.999 49.999,0 0,49.999 -0.001,49.999 -0.001,50 0,50 49.999,99.999 99.998,50 99.999,50 
	99.998,50 "/>
</g></g><g transform="translate(336,0) scale(0.16,0.16)"><g transform="" style="fill: rgb(0, 0, 0);">
<polygon points="99.999,49.999 99.998,49.999 49.999,0 0,49.999 -0.001,49.999 -0.001,50 0,50 49.999,99.999 99.998,50 99.999,50 
	99.998,50 "/>
</g></g><g transform="translate(368,0) scale(0.16,0.16)"><g transform="" style="fill: rgb(0, 0, 0);">
<polygon points="100,100 0,50 0,50 100,0 "/>
</g></g><g transform="translate(384,0) scale(0.16,0.16)"><g transform="" style="fill: rgb(0, 0, 0);">
<g>
	<path d="M100,34.375c0-9.505-3.354-17.611-10.059-24.316S75.131,0,65.625,0H0v100h100V34.375z"/>
</g>
</g></g><g transform="translate(128,16) scale(0.16,0.16)"><g transform="" style="fill: rgb(0, 0, 0);">
<polygon points="100,100 0,50 0,50 100,0 "/>
</g></g><g transform="translate(144,16) scale(0.16,0.16)"><g transform="" style="fill: rgb(0, 0, 0);">
<g>
	<path d="M100,34.375c0-9.505-3.354-17.611-10.059-24.316S75.131,0,65.625,0H0v100h100V34.375z"/>
</g>
</g></g><g transform="translate(192,16) scale(0.16,0.16)"><g transform="" style="fill: rgb(0, 0, 0);">
<g>
	<path d="M100,0H0v65.625c0,9.506,3.353,17.611,10.059,24.316S24.87,100,34.375,100H100V0z"/>
</g>
</g></g><g transform="translate(208,16) scale(0.16,0.16)"><g transform="" style="fill: rgb(0, 0, 0);">
<g>
	<path d="M100,34.375c0-9.505-3.354-17.611-10.059-24.316S75.131,0,65.625,0H0v100h100V34.375z"/>
</g>
</g></g><g transform="translate(256,16) scale(0.16,0.16)"><g transform="" style="fill: rgb(0, 0, 0);">
<rect width="100" height="100"/>
</g></g><g transform="translate(272,16) scale(0.16,0.16)"><g transform="" style="fill: rgb(0, 0, 0);">
<polygon points="0,100 100,50 100,50 0,0 "/>
</g></g><g transform="translate(320,16) scale(0.16,0.16)"><g transform="" style="fill: rgb(0, 0, 0);">
<polygon points="100,100 50,0 50,0 0,100 "/>
</g></g><g transform="translate(352,16) scale(0.16,0.16)"><g transform="" style="fill: rgb(0, 0, 0);">
<polygon points="99.999,49.999 99.998,49.999 49.999,0 0,49.999 -0.001,49.999 -0.001,50 0,50 49.999,99.999 99.998,50 99.999,50 
	99.998,50 "/>
</g></g><g transform="translate(384,16) scale(0.16,0.16)"><g transform="" style="fill: rgb(0, 0, 0);">
<polygon points="0,-0.001 50,99.999 50,99.999 100,-0.001 "/>
</g></g><g transform="translate(144,32) scale(0.16,0.16)"><g transform="" style="fill: rgb(0, 0, 0);">
<g>
	<path d="M100,0H0v65.625c0,9.506,3.353,17.611,10.059,24.316S24.87,100,34.375,100H100V0z"/>
</g>
</g></g><g transform="translate(160,32) scale(0.16,0.16)"><g transform="" style="fill: rgb(0, 0, 0);">
<g>
	<path d="M100,34.375c0-9.505-3.354-17.611-10.059-24.316S75.131,0,65.625,0H0v100h100V34.375z"/>
</g>
</g></g><g transform="translate(208,32) scale(0.16,0.16)"><g transform="" style="fill: rgb(0, 0, 0);">
<g>
	<path d="M100,0H0v65.625c0,9.506,3.353,17.611,10.059,24.316S24.87,100,34.375,100H100V0z"/>
</g>
</g></g><g transform="translate(224,32) scale(0.16,0.16)"><g transform="" style="fill: rgb(0, 0, 0);">
<rect width="100" height="100"/>
</g></g><g transform="translate(240,32) scale(0.16,0.16)"><g transform="" style="fill: rgb(0, 0, 0);">
<rect width="100" height="100"/>
</g></g><g transform="translate(256,32) scale(0.16,0.16)"><g transform="" style="fill: rgb(0, 0, 0);">
<rect width="100" height="100"/>
</g></g><g transform="translate(288,32) scale(0.16,0.16)"><g transform="" style="fill: rgb(0, 0, 0);">
<polygon points="99.999,49.999 99.998,49.999 49.999,0 0,49.999 -0.001,49.999 -0.001,50 0,50 49.999,99.999 99.998,50 99.999,50 
	99.998,50 "/>
</g></g><g transform="translate(320,32) scale(0.16,0.16)"><g transform="" style="fill: rgb(0, 0, 0);">
<rect width="100" height="100"/>
</g></g><g transform="translate(336,32) scale(0.16,0.16)"><g transform="" style="fill: rgb(0, 0, 0);">
<polygon points="0,100 100,50 100,50 0,0 "/>
</g></g><g transform="translate(160,48) scale(0.16,0.16)"><g transform="" style="fill: rgb(0, 0, 0);">
<rect width="100" height="100"/>
</g></g><g transform="translate(176,48) scale(0.16,0.16)"><g transform="" style="fill: rgb(0, 0, 0);">
<rect width="100" height="100"/>
</g></g><g transform="translate(192,48) scale(0.16,0.16)"><g transform="" style="fill: rgb(0, 0, 0);">
<g>
	<path d="M100,34.375c0-9.505-3.354-17.611-10.059-24.316S75.131,0,65.625,0H0v100h100V34.375z"/>
</g>
</g></g><g transform="translate(240,48) scale(0.16,0.16)"><g transform="" style="fill: rgb(0, 0, 0);">
<rect width="100" height="100"/>
</g></g><g transform="translate(256,48) scale(0.16,0.16)"><g transform="" style="fill: rgb(0, 0, 0);">
<rect width="100" height="100"/>
</g></g><g transform="translate(320,48) scale(0.16,0.16)"><g transform="" style="fill: rgb(0, 0, 0);">
<rect width="100" height="100"/>
</g></g><g transform="translate(384,48) scale(0.16,0.16)"><g transform="" style="fill: rgb(0, 0, 0);">
<polygon points="100,100 50,0 50,0 0,100 "/>
</g></g><g transform="translate(144,64) scale(0.16,0.16)"><g transform="" style="fill: rgb(0, 0, 0);">
<g>
	<path d="M100,34.375V0H34.375C24.87,0,16.764,3.353,10.059,10.059S0,24.87,0,34.375V100h100V34.375z"/>
</g>
</g></g><g transform="translate(160,64) scale(0.16,0.16)"><g transform="" style="fill: rgb(0, 0, 0);">
<rect width="100" height="100"/>
</g></g><g transform="translate(192,64) scale(0.16,0.16)"><g transform="" style="fill: rgb(0, 0, 0);">
<rect width="100" height="100"/>
</g></g><g transform="translate(224,64) scale(0.16,0.16)"><g transform="" style="fill: rgb(0, 0, 0);">
<g>
	<path d="M100,34.375V0H34.375C24.87,0,16.764,3.353,10.059,10.059S0,24.87,0,34.375V100h100V34.375z"/>
</g>
</g></g><g transform="translate(240,64) scale(0.16,0.16)"><g transform="" style="fill: rgb(0, 0, 0);">
<rect width="100" height="100"/>
</g></g><g transform="translate(256,64) scale(0.16,0.16)"><g transform="" style="fill: rgb(0, 0, 0);">
<g>
	<path d="M100,0H0v100h65.625c9.506,0,17.611-3.354,24.316-10.059S100,75.131,100,65.625V0z"/>
</g>
</g></g><g transform="translate(304,64) scale(0.16,0.16)"><g transform="" style="fill: rgb(0, 0, 0);">
<g>
	<path d="M100,34.375V0H34.375C24.87,0,16.764,3.353,10.059,10.059S0,24.87,0,34.375V100h100V34.375z"/>
</g>
</g></g><g transform="translate(320,64) scale(0.16,0.16)"><g transform="" style="fill: rgb(0, 0, 0);">
<rect width="100" height="100"/>
</g></g><g transform="translate(384,64) scale(0.16,0.16)"><g transform="" style="fill: rgb(0, 0, 0);">
<polygon points="0,-0.001 50,99.999 50,99.999 100,-0.001 "/>
</g></g><g transform="translate(128,80) scale(0.16,0.16)"><g transform="" style="fill: rgb(0, 0, 0);">
<g>
	<path d="M100,34.375V0H34.375C24.87,0,16.764,3.353,10.059,10.059S0,24.87,0,34.375V100h100V34.375z"/>
</g>
</g></g><g transform="translate(144,80) scale(0.16,0.16)"><g transform="" style="fill: rgb(0, 0, 0);">
<rect width="100" height="100"/>
</g></g><g transform="translate(160,80) scale(0.16,0.16)"><g transform="" style="fill: rgb(0, 0, 0);">
<rect width="100" height="100"/>
</g></g><g transform="translate(176,80) scale(0.16,0.16)"><g transform="" style="fill: rgb(0, 0, 0);">
<rect width="100" height="100"/>
</g></g><g transform="translate(192,80) scale(0.16,0.16)"><g transform="" style="fill: rgb(0, 0, 0);">
<rect width="100" height="100"/>
</g></g><g transform="translate(208,80) scale(0.16,0.16)"><g transform="" style="fill: rgb(0, 0, 0);">
<rect width="100" height="100"/>
</g></g><g transform="translate(224,80) scale(0.16,0.16)"><g transform="" style="fill: rgb(0, 0, 0);">
<rect width="100" height="100"/>
</g></g><g transform="translate(240,80) scale(0.16,0.16)"><g transform="" style="fill: rgb(0, 0, 0);">
<g>
	<path d="M100,0H0v100h65.625c9.506,0,17.611-3.354,24.316-10.059S100,75.131,100,65.625V0z"/>
</g>
</g></g><g transform="translate(288,80) scale(0.16,0.16)"><g transform="" style="fill: rgb(0, 0, 0);">
<g>
	<path d="M100,34.375V0H34.375C24.87,0,16.764,3.353,10.059,10.059S0,24.87,0,34.375V100h100V34.375z"/>
</g>
</g></g><g transform="translate(304,80) scale(0.16,0.16)"><g transform="" style="fill: rgb(0, 0, 0);">
<rect width="100" height="100"/>
</g></g><g transform="translate(320,80) scale(0.16,0.16)"><g transform="" style="fill: rgb(0, 0, 0);">
<rect width="100" height="100"/>
</g></g><g transform="translate(336,80) scale(0.16,0.16)"><g transform="" style="fill: rgb(0, 0, 0);">
<polygon points="0,100 100,50 100,50 0,0 "/>
</g></g><g transform="translate(128,96) scale(0.16,0.16)"><g transform="" style="fill: rgb(0, 0, 0);">
<rect width="100" height="100"/>
</g></g><g transform="translate(160,96) scale(0.16,0.16)"><g transform="" style="fill: rgb(0, 0, 0);">
<polygon points="0,-0.001 50,99.999 50,99.999 100,-0.001 "/>
</g></g><g transform="translate(192,96) scale(0.16,0.16)"><g transform="" style="fill: rgb(0, 0, 0);">
<rect width="100" height="100"/>
</g></g><g transform="translate(224,96) scale(0.16,0.16)"><g transform="" style="fill: rgb(0, 0, 0);">
<polygon points="0,-0.001 50,99.999 50,99.999 100,-0.001 "/>
</g></g><g transform="translate(256,96) scale(0.16,0.16)"><g transform="" style="fill: rgb(0, 0, 0);">
<polygon points="99.999,49.999 99.998,49.999 49.999,0 0,49.999 -0.001,49.999 -0.001,50 0,50 49.999,99.999 99.998,50 99.999,50 
	99.998,50 "/>
</g></g><g transform="translate(288,96) scale(0.16,0.16)"><g transform="" style="fill: rgb(0, 0, 0);">
<rect width="100" height="100"/>
</g></g><g transform="translate(320,96) scale(0.16,0.16)"><g transform="" style="fill: rgb(0, 0, 0);">
<rect width="100" height="100"/>
</g></g><g transform="translate(352,96) scale(0.16,0.16)"><g transform="" style="fill: rgb(0, 0, 0);">
<polygon points="99.999,49.999 99.998,49.999 49.999,0 0,49.999 -0.001,49.999 -0.001,50 0,50 49.999,99.999 99.998,50 99.999,50 
	99.998,50 "/>
</g></g><g transform="translate(384,96) scale(0.16,0.16)"><g transform="" style="fill: rgb(0, 0, 0);">
<polygon points="99.999,49.999 99.998,49.999 49.999,0 0,49.999 -0.001,49.999 -0.001,50 0,50 49.999,99.999 99.998,50 99.999,50 
	99.998,50 "/>
</g></g><g transform="translate(128,112) scale(0.16,0.16)"><g transform="" style="fill: rgb(0, 0, 0);">
<polygon points="0,-0.001 50,99.999 50,99.999 100,-0.001 "/>
</g></g><g transform="translate(176,112) scale(0.16,0.16)"><g transform="" style="fill: rgb(0, 0, 0);">
<g>
	<path d="M100,34.375V0H34.375C24.87,0,16.764,3.353,10.059,10.059S0,24.87,0,34.375V100h100V34.375z"/>
</g>
</g></g><g transform="translate(192,112) scale(0.16,0.16)"><g transform="" style="fill: rgb(0, 0, 0);">
<g>
	<path d="M100,0H0v100h65.625c9.506,0,17.611-3.354,24.316-10.059S100,75.131,100,65.625V0z"/>
</g>
</g></g><g transform="translate(272,112) scale(0.16,0.16)"><g transform="" style="fill: rgb(0, 0, 0);">
<polygon points="100,100 0,50 0,50 100,0 "/>
</g></g><g transform="translate(288,112) scale(0.16,0.16)"><g transform="" style="fill: rgb(0, 0, 0);">
<rect width="100" height="100"/>
</g></g><g transform="translate(304,112) scale(0.16,0.16)"><g transform="" style="fill: rgb(0, 0, 0);">
<rect width="100" height="100"/>
</g></g><g transform="translate(320,112) scale(0.16,0.16)"><g transform="" style="fill: rgb(0, 0, 0);">
<rect width="100" height="100"/>
</g></g><g transform="translate(336,112) scale(0.16,0.16)"><g transform="" style="fill: rgb(0, 0, 0);">
<g>
	<path d="M100,34.375c0-9.505-3.354-17.611-10.059-24.316S75.131,0,65.625,0H0v100h100V34.375z"/>
</g>
</g></g><g transform="translate(368,112) scale(0.16,0.16)"><g transform="" style="fill: rgb(0, 0, 0);">
<polygon points="99.999,49.999 99.998,49.999 49.999,0 0,49.999 -0.001,49.999 -0.001,50 0,50 49.999,99.999 99.998,50 99.999,50 
	99.998,50 "/>
</g></g><g transform="translate(64,128) scale(0.16,0.16)"><g transform="" style="fill: rgb(0, 0, 0);">
<polygon points="100,100 0,50 0,50 100,0 "/>
</g></g><g transform="translate(80,128) scale(0.16,0.16)"><g transform="" style="fill: rgb(0, 0, 0);">
<rect width="100" height="100"/>
</g></g><g transform="translate(96,128) scale(0.16,0.16)"><g transform="" style="fill: rgb(0, 0, 0);">
<rect width="100" height="100"/>
</g></g><g transform="translate(112,128) scale(0.16,0.16)"><g transform="" style="fill: rgb(0, 0, 0);">
<g>
	<path d="M100,34.375c0-9.505-3.354-17.611-10.059-24.316S75.131,0,65.625,0H0v100h100V34.375z"/>
</g>
</g></g><g transform="translate(176,128) scale(0.16,0.16)"><g transform="" style="fill: rgb(0, 0, 0);">
<rect width="100" height="100"/>
</g></g><g transform="translate(256,128) scale(0.16,0.16)"><g transform="" style="fill: rgb(0, 0, 0);">
<polygon points="100,100 50,0 50,0 0,100 "/>
</g></g><g transform="translate(288,128) scale(0.16,0.16)"><g transform="" style="fill: rgb(0, 0, 0);">
<g>
	<path d="M100,0H0v65.625c0,9.506,3.353,17.611,10.059,24.316S24.87,100,34.375,100H100V0z"/>
</g>
</g></g><g transform="translate(304,128) scale(0.16,0.16)"><g transform="" style="fill: rgb(0, 0, 0);">
<g>
	<path d="M100,0H0v100h65.625c9.506,0,17.611-3.354,24.316-10.059S100,75.131,100,65.625V0z"/>
</g>
</g></g><g transform="translate(336,128) scale(0.16,0.16)"><g transform="" style="fill: rgb(0, 0, 0);">
<rect width="100" height="100"/>
</g></g><g transform="translate(352,128) scale(0.16,0.16)"><g transform="" style="fill: rgb(0, 0, 0);">
<polygon points="0,100 100,50 100,50 0,0 "/>
</g></g><g transform="translate(384,128) scale(0.16,0.16)"><g transform="" style="fill: rgb(0, 0, 0);">
<polygon points="99.999,49.999 99.998,49.999 49.999,0 0,49.999 -0.001,49.999 -0.001,50 0,50 49.999,99.999 99.998,50 99.999,50 
	99.998,50 "/>
</g></g><g transform="translate(416,128) scale(0.16,0.16)"><g transform="" style="fill: rgb(0, 0, 0);">
<polygon points="100,100 0,50 0,50 100,0 "/>
</g></g><g transform="translate(432,128) scale(0.16,0.16)"><g transform="" style="fill: rgb(0, 0, 0);">
<g>
	<path d="M100,34.375c0-9.505-3.354-17.611-10.059-24.316S75.131,0,65.625,0H0v100h100V34.375z"/>
</g>
</g></g><g transform="translate(496,128) scale(0.16,0.16)"><g transform="" style="fill: rgb(0, 0, 0);">
<polygon points="100,100 50,0 50,0 0,100 "/>
</g></g><g transform="translate(16,144) scale(0.16,0.16)"><g transform="" style="fill: rgb(0, 0, 0);">
<polygon points="100,100 50,0 50,0 0,100 "/>
</g></g><g transform="translate(80,144) scale(0.16,0.16)"><g transform="" style="fill: rgb(0, 0, 0);">
<polygon points="0,-0.001 50,99.999 50,99.999 100,-0.001 "/>
</g></g><g transform="translate(112,144) scale(0.16,0.16)"><g transform="" style="fill: rgb(0, 0, 0);">
<rect width="100" height="100"/>
</g></g><g transform="translate(128,144) scale(0.16,0.16)"><g transform="" style="fill: rgb(0, 0, 0);">
<g>
	<path d="M100,34.375c0-9.505-3.354-17.611-10.059-24.316S75.131,0,65.625,0H0v100h100V34.375z"/>
</g>
</g></g><g transform="translate(176,144) scale(0.16,0.16)"><g transform="" style="fill: rgb(0, 0, 0);">
<g>
	<path d="M100,0H0v65.625c0,9.506,3.353,17.611,10.059,24.316S24.87,100,34.375,100H100V0z"/>
</g>
</g></g><g transform="translate(192,144) scale(0.16,0.16)"><g transform="" style="fill: rgb(0, 0, 0);">
<g>
	<path d="M100,34.375c0-9.505-3.354-17.611-10.059-24.316S75.131,0,65.625,0H0v100h100V34.375z"/>
</g>
</g></g><g transform="translate(240,144) scale(0.16,0.16)"><g transform="" style="fill: rgb(0, 0, 0);">
<g>
	<path d="M100,34.375V0H34.375C24.87,0,16.764,3.353,10.059,10.059S0,24.87,0,34.375V100h100V34.375z"/>
</g>
</g></g><g transform="translate(256,144) scale(0.16,0.16)"><g transform="" style="fill: rgb(0, 0, 0);">
<rect width="100" height="100"/>
</g></g><g transform="translate(272,144) scale(0.16,0.16)"><g transform="" style="fill: rgb(0, 0, 0);">
<polygon points="0,100 100,50 100,50 0,0 "/>
</g></g><g transform="translate(336,144) scale(0.16,0.16)"><g transform="" style="fill: rgb(0, 0, 0);">
<polygon points="0,-0.001 50,99.999 50,99.999 100,-0.001 "/>
</g></g><g transform="translate(368,144) scale(0.16,0.16)"><g transform="" style="fill: rgb(0, 0, 0);">
<polygon points="100,100 50,0 50,0 0,100 "/>
</g></g><g transform="translate(432,144) scale(0.16,0.16)"><g transform="" style="fill: rgb(0, 0, 0);">
<rect width="100" height="100"/>
</g></g><g transform="translate(464,144) scale(0.16,0.16)"><g transform="" style="fill: rgb(0, 0, 0);">
<polygon points="100,100 50,0 50,0 0,100 "/>
</g></g><g transform="translate(496,144) scale(0.16,0.16)"><g transform="" style="fill: rgb(0, 0, 0);">
<rect width="100" height="100"/>
</g></g><g transform="translate(0,160) scale(0.16,0.16)"><g transform="" style="fill: rgb(0, 0, 0);">
<polygon points="100,100 0,50 0,50 100,0 "/>
</g></g><g transform="translate(16,160) scale(0.16,0.16)"><g transform="" style="fill: rgb(0, 0, 0);">
<g>
	<path d="M100,0H0v100h65.625c9.506,0,17.611-3.354,24.316-10.059S100,75.131,100,65.625V0z"/>
</g>
</g></g><g transform="translate(48,160) scale(0.16,0.16)"><g transform="" style="fill: rgb(0, 0, 0);">
<polygon points="100,100 50,0 50,0 0,100 "/>
</g></g><g transform="translate(96,160) scale(0.16,0.16)"><g transform="" style="fill: rgb(0, 0, 0);">
<polygon points="100,100 0,50 0,50 100,0 "/>
</g></g><g transform="translate(112,160) scale(0.16,0.16)"><g transform="" style="fill: rgb(0, 0, 0);">
<rect width="100" height="100"/>
</g></g><g transform="translate(128,160) scale(0.16,0.16)"><g transform="" style="fill: rgb(0, 0, 0);">
<rect width="100" height="100"/>
</g></g><g transform="translate(144,160) scale(0.16,0.16)"><g transform="" style="fill: rgb(0, 0, 0);">
<rect width="100" height="100"/>
</g></g><g transform="translate(160,160) scale(0.16,0.16)"><g transform="" style="fill: rgb(0, 0, 0);">
<g>
	<path d="M100,34.375c0-9.505-3.354-17.611-10.059-24.316S75.131,0,65.625,0H0v100h100V34.375z"/>
</g>
</g></g><g transform="translate(192,160) scale(0.16,0.16)"><g transform="" style="fill: rgb(0, 0, 0);">
<g>
	<path d="M100,0H0v65.625c0,9.506,3.353,17.611,10.059,24.316S24.87,100,34.375,100H100V0z"/>
</g>
</g></g><g transform="translate(208,160) scale(0.16,0.16)"><g transform="" style="fill: rgb(0, 0, 0);">
<rect width="100" height="100"/>
</g></g><g transform="translate(224,160) scale(0.16,0.16)"><g transform="" style="fill: rgb(0, 0, 0);">
<rect width="100" height="100"/>
</g></g><g transform="translate(240,160) scale(0.16,0.16)"><g transform="" style="fill: rgb(0, 0, 0);">
<g>
	<path d="M100,0H0v100h65.625c9.506,0,17.611-3.354,24.316-10.059S100,75.131,100,65.625V0z"/>
</g>
</g></g><g transform="translate(288,160) scale(0.16,0.16)"><g transform="" style="fill: rgb(0, 0, 0);">
<polygon points="99.999,49.999 99.998,49.999 49.999,0 0,49.999 -0.001,49.999 -0.001,50 0,50 49.999,99.999 99.998,50 99.999,50 
	99.998,50 "/>
</g></g><g transform="translate(368,160) scale(0.16,0.16)"><g transform="" style="fill: rgb(0, 0, 0);">
<polygon points="0,-0.001 50,99.999 50,99.999 100,-0.001 "/>
</g></g><g transform="translate(400,160) scale(0.16,0.16)"><g transform="" style="fill: rgb(0, 0, 0);">
<polygon points="100,100 0,50 0,50 100,0 "/>
</g></g><g transform="translate(416,160) scale(0.16,0.16)"><g transform="" style="fill: rgb(0, 0, 0);">
<rect width="100" height="100"/>
</g></g><g transform="translate(432,160) scale(0.16,0.16)"><g transform="" style="fill: rgb(0, 0, 0);">
<rect width="100" height="100"/>
</g></g><g transform="translate(448,160) scale(0.16,0.16)"><g transform="" style="fill: rgb(0, 0, 0);">
<rect width="100" height="100"/>
</g></g><g transform="translate(464,160) scale(0.16,0.16)"><g transform="" style="fill: rgb(0, 0, 0);">
<rect width="100" height="100"/>
</g></g><g transform="translate(480,160) scale(0.16,0.16)"><g transform="" style="fill: rgb(0, 0, 0);">
<rect width="100" height="100"/>
</g></g><g transform="translate(496,160) scale(0.16,0.16)"><g transform="" style="fill: rgb(0, 0, 0);">
<g>
	<path d="M100,0H0v100h65.625c9.506,0,17.611-3.354,24.316-10.059S100,75.131,100,65.625V0z"/>
</g>
</g></g><g transform="translate(48,176) scale(0.16,0.16)"><g transform="" style="fill: rgb(0, 0, 0);">
<polygon points="0,-0.001 50,99.999 50,99.999 100,-0.001 "/>
</g></g><g transform="translate(112,176) scale(0.16,0.16)"><g transform="" style="fill: rgb(0, 0, 0);">
<polygon points="0,-0.001 50,99.999 50,99.999 100,-0.001 "/>
</g></g><g transform="translate(160,176) scale(0.16,0.16)"><g transform="" style="fill: rgb(0, 0, 0);">
<rect width="100" height="100"/>
</g></g><g transform="translate(256,176) scale(0.16,0.16)"><g transform="" style="fill: rgb(0, 0, 0);">
<polygon points="99.999,49.999 99.998,49.999 49.999,0 0,49.999 -0.001,49.999 -0.001,50 0,50 49.999,99.999 99.998,50 99.999,50 
	99.998,50 "/>
</g></g><g transform="translate(304,176) scale(0.16,0.16)"><g transform="" style="fill: rgb(0, 0, 0);">
<g>
	<path d="M100,34.375V0H34.375C24.87,0,16.764,3.353,10.059,10.059S0,24.87,0,34.375V100h100V34.375z"/>
</g>
</g></g><g transform="translate(320,176) scale(0.16,0.16)"><g transform="" style="fill: rgb(0, 0, 0);">
<polygon points="0,100 100,50 100,50 0,0 "/>
</g></g><g transform="translate(352,176) scale(0.16,0.16)"><g transform="" style="fill: rgb(0, 0, 0);">
<polygon points="100,100 50,0 50,0 0,100 "/>
</g></g><g transform="translate(384,176) scale(0.16,0.16)"><g transform="" style="fill: rgb(0, 0, 0);">
<polygon points="100,100 50,0 50,0 0,100 "/>
</g></g><g transform="translate(448,176) scale(0.16,0.16)"><g transform="" style="fill: rgb(0, 0, 0);">
<polygon points="0,-0.001 50,99.999 50,99.999 100,-0.001 "/>
</g></g><g transform="translate(32,192) scale(0.16,0.16)"><g transform="" style="fill: rgb(0, 0, 0);">
<polygon points="99.999,49.999 99.998,49.999 49.999,0 0,49.999 -0.001,49.999 -0.001,50 0,50 49.999,99.999 99.998,50 99.999,50 
	99.998,50 "/>
</g></g><g transform="translate(64,192) scale(0.16,0.16)"><g transform="" style="fill: rgb(0, 0, 0);">
<polygon points="100,100 0,50 0,50 100,0 "/>
</g></g><g transform="translate(80,192) scale(0.16,0.16)"><g transform="" style="fill: rgb(0, 0, 0);">
<rect width="100" height="100"/>
</g></g><g transform="translate(96,192) scale(0.16,0.16)"><g transform="" style="fill: rgb(0, 0, 0);">
<polygon points="0,100 100,50 100,50 0,0 "/>
</g></g><g transform="translate(144,192) scale(0.16,0.16)"><g transform="" style="fill: rgb(0, 0, 0);">
<polygon points="100,100 0,50 0,50 100,0 "/>
</g></g><g transform="translate(160,192) scale(0.16,0.16)"><g transform="" style="fill: rgb(0, 0, 0);">
<rect width="100" height="100"/>
</g></g><g transform="translate(192,192) scale(0.16,0.16)"><g transform="" style="fill: rgb(0, 0, 0);">
<polygon points="100,100 50,0 50,0 0,100 "/>
</g></g><g transform="translate(224,192) scale(0.16,0.16)"><g transform="" style="fill: rgb(0, 0, 0);">
<polygon points="100,100 0,50 0,50 100,0 "/>
</g></g><g transform="translate(240,192) scale(0.16,0.16)"><g transform="" style="fill: rgb(0, 0, 0);">
<g>
	<path d="M100,34.375c0-9.505-3.354-17.611-10.059-24.316S75.131,0,65.625,0H0v100h100V34.375z"/>
</g>
</g></g><g transform="translate(272,192) scale(0.16,0.16)"><g transform="" style="fill: rgb(0, 0, 0);">
<polygon points="100,100 50,0 50,0 0,100 "/>
</g></g><g transform="translate(304,192) scale(0.16,0.16)"><g transform="" style="fill: rgb(0, 0, 0);">
<polygon points="0,-0.001 50,99.999 50,99.999 100,-0.001 "/>
</g></g><g transform="translate(352,192) scale(0.16,0.16)"><g transform="" style="fill: rgb(0, 0, 0);">
<g>
	<path d="M100,0H0v65.625c0,9.506,3.353,17.611,10.059,24.316S24.87,100,34.375,100H100V0z"/>
</g>
</g></g><g transform="translate(368,192) scale(0.16,0.16)"><g transform="" style="fill: rgb(0, 0, 0);">
<rect width="100" height="100"/>
</g></g><g transform="translate(384,192) scale(0.16,0.16)"><g transform="" style="fill: rgb(0, 0, 0);">
<rect width="100" height="100"/>
</g></g><g transform="translate(416,192) scale(0.16,0.16)"><g transform="" style="fill: rgb(0, 0, 0);">
<polygon points="99.999,49.999 99.998,49.999 49.999,0 0,49.999 -0.001,49.999 -0.001,50 0,50 49.999,99.999 99.998,50 99.999,50 
	99.998,50 "/>
</g></g><g transform="translate(496,192) scale(0.16,0.16)"><g transform="" style="fill: rgb(0, 0, 0);">
<polygon points="100,100 50,0 50,0 0,100 "/>
</g></g><g transform="translate(48,208) scale(0.16,0.16)"><g transform="" style="fill: rgb(0, 0, 0);">
<polygon points="99.999,49.999 99.998,49.999 49.999,0 0,49.999 -0.001,49.999 -0.001,50 0,50 49.999,99.999 99.998,50 99.999,50 
	99.998,50 "/>
</g></g><g transform="translate(80,208) scale(0.16,0.16)"><g transform="" style="fill: rgb(0, 0, 0);">
<rect width="100" height="100"/>
</g></g><g transform="translate(112,208) scale(0.16,0.16)"><g transform="" style="fill: rgb(0, 0, 0);">
<polygon points="100,100 50,0 50,0 0,100 "/>
</g></g><g transform="translate(160,208) scale(0.16,0.16)"><g transform="" style="fill: rgb(0, 0, 0);">
<rect width="100" height="100"/>
</g></g><g transform="translate(176,208) scale(0.16,0.16)"><g transform="" style="fill: rgb(0, 0, 0);">
<rect width="100" height="100"/>
</g></g><g transform="translate(192,208) scale(0.16,0.16)"><g transform="" style="fill: rgb(0, 0, 0);">
<rect width="100" height="100"/>
</g></g><g transform="translate(208,208) scale(0.16,0.16)"><g transform="" style="fill: rgb(0, 0, 0);">
<g>
	<path d="M100,34.375c0-9.505-3.354-17.611-10.059-24.316S75.131,0,65.625,0H0v100h100V34.375z"/>
</g>
</g></g><g transform="translate(240,208) scale(0.16,0.16)"><g transform="" style="fill: rgb(0, 0, 0);">
<g>
	<path d="M100,0H0v65.625c0,9.506,3.353,17.611,10.059,24.316S24.87,100,34.375,100H100V0z"/>
</g>
</g></g><g transform="translate(256,208) scale(0.16,0.16)"><g transform="" style="fill: rgb(0, 0, 0);">
<rect width="100" height="100"/>
</g></g><g transform="translate(272,208) scale(0.16,0.16)"><g transform="" style="fill: rgb(0, 0, 0);">
<rect width="100" height="100"/>
</g></g><g transform="translate(336,208) scale(0.16,0.16)"><g transform="" style="fill: rgb(0, 0, 0);">
<polygon points="99.999,49.999 99.998,49.999 49.999,0 0,49.999 -0.001,49.999 -0.001,50 0,50 49.999,99.999 99.998,50 99.999,50 
	99.998,50 "/>
</g></g><g transform="translate(368,208) scale(0.16,0.16)"><g transform="" style="fill: rgb(0, 0, 0);">
<rect width="100" height="100"/>
</g></g><g transform="translate(384,208) scale(0.16,0.16)"><g transform="" style="fill: rgb(0, 0, 0);">
<g>
	<path d="M100,0H0v100h65.625c9.506,0,17.611-3.354,24.316-10.059S100,75.131,100,65.625V0z"/>
</g>
</g></g><g transform="translate(432,208) scale(0.16,0.16)"><g transform="" style="fill: rgb(0, 0, 0);">
<g>
	<path d="M100,34.375V0H34.375C24.87,0,16.764,3.353,10.059,10.059S0,24.87,0,34.375V100h100V34.375z"/>
</g>
</g></g><g transform="translate(448,208) scale(0.16,0.16)"><g transform="" style="fill: rgb(0, 0, 0);">
<rect width="100" height="100"/>
</g></g><g transform="translate(464,208) scale(0.16,0.16)"><g transform="" style="fill: rgb(0, 0, 0);">
<g>
	<path d="M100,34.375c0-9.505-3.354-17.611-10.059-24.316S75.131,0,65.625,0H0v100h100V34.375z"/>
</g>
</g></g><g transform="translate(496,208) scale(0.16,0.16)"><g transform="" style="fill: rgb(0, 0, 0);">
<rect width="100" height="100"/>
</g></g><g transform="translate(0,224) scale(0.16,0.16)"><g transform="" style="fill: rgb(0, 0, 0);">
<polygon points="99.999,49.999 99.998,49.999 49.999,0 0,49.999 -0.001,49.999 -0.001,50 0,50 49.999,99.999 99.998,50 99.999,50 
	99.998,50 "/>
</g></g><g transform="translate(64,224) scale(0.16,0.16)"><g transform="" style="fill: rgb(0, 0, 0);">
<g>
	<path d="M100,34.375V0H34.375C24.87,0,16.764,3.353,10.059,10.059S0,24.87,0,34.375V100h100V34.375z"/>
</g>
</g></g><g transform="translate(80,224) scale(0.16,0.16)"><g transform="" style="fill: rgb(0, 0, 0);">
<rect width="100" height="100"/>
</g></g><g transform="translate(96,224) scale(0.16,0.16)"><g transform="" style="fill: rgb(0, 0, 0);">
<rect width="100" height="100"/>
</g></g><g transform="translate(112,224) scale(0.16,0.16)"><g transform="" style="fill: rgb(0, 0, 0);">
<rect width="100" height="100"/>
</g></g><g transform="translate(128,224) scale(0.16,0.16)"><g transform="" style="fill: rgb(0, 0, 0);">
<rect width="100" height="100"/>
</g></g><g transform="translate(144,224) scale(0.16,0.16)"><g transform="" style="fill: rgb(0, 0, 0);">
<rect width="100" height="100"/>
</g></g><g transform="translate(160,224) scale(0.16,0.16)"><g transform="" style="fill: rgb(0, 0, 0);">
<g>
	<path d="M100,0H0v100h65.625c9.506,0,17.611-3.354,24.316-10.059S100,75.131,100,65.625V0z"/>
</g>
</g></g><g transform="translate(208,224) scale(0.16,0.16)"><g transform="" style="fill: rgb(0, 0, 0);">
<rect width="100" height="100"/>
</g></g><g transform="translate(224,224) scale(0.16,0.16)"><g transform="" style="fill: rgb(0, 0, 0);">
<g>
	<path d="M100,34.375c0-9.505-3.354-17.611-10.059-24.316S75.131,0,65.625,0H0v100h100V34.375z"/>
</g>
</g></g><g transform="translate(272,224) scale(0.16,0.16)"><g transform="" style="fill: rgb(0, 0, 0);">
<rect width="100" height="100"/>
</g></g><g transform="translate(288,224) scale(0.16,0.16)"><g transform="" style="fill: rgb(0, 0, 0);">
<polygon points="0,100 100,50 100,50 0,0 "/>
</g></g><g transform="translate(368,224) scale(0.16,0.16)"><g transform="" style="fill: rgb(0, 0, 0);">
<rect width="100" height="100"/>
</g></g><g transform="translate(400,224) scale(0.16,0.16)"><g transform="" style="fill: rgb(0, 0, 0);">
<polygon points="100,100 0,50 0,50 100,0 "/>
</g></g><g transform="translate(416,224) scale(0.16,0.16)"><g transform="" style="fill: rgb(0, 0, 0);">
<rect width="100" height="100"/>
</g></g><g transform="translate(432,224) scale(0.16,0.16)"><g transform="" style="fill: rgb(0, 0, 0);">
<g>
	<path d="M100,0H0v100h65.625c9.506,0,17.611-3.354,24.316-10.059S100,75.131,100,65.625V0z"/>
</g>
</g></g><g transform="translate(464,224) scale(0.16,0.16)"><g transform="" style="fill: rgb(0, 0, 0);">
<g>
	<path d="M100,0H0v65.625c0,9.506,3.353,17.611,10.059,24.316S24.87,100,34.375,100H100V0z"/>
</g>
</g></g><g transform="translate(480,224) scale(0.16,0.16)"><g transform="" style="fill: rgb(0, 0, 0);">
<rect width="100" height="100"/>
</g></g><g transform="translate(496,224) scale(0.16,0.16)"><g transform="" style="fill: rgb(0, 0, 0);">
<g>
	<path d="M100,0H0v100h65.625c9.506,0,17.611-3.354,24.316-10.059S100,75.131,100,65.625V0z"/>
</g>
</g></g><g transform="translate(32,240) scale(0.16,0.16)"><g transform="" style="fill: rgb(0, 0, 0);">
<polygon points="100,100 50,0 50,0 0,100 "/>
</g></g><g transform="translate(64,240) scale(0.16,0.16)"><g transform="" style="fill: rgb(0, 0, 0);">
<rect width="100" height="100"/>
</g></g><g transform="translate(80,240) scale(0.16,0.16)"><g transform="" style="fill: rgb(0, 0, 0);">
<rect width="100" height="100"/>
</g></g><g transform="translate(112,240) scale(0.16,0.16)"><g transform="" style="fill: rgb(0, 0, 0);">
<rect width="100" height="100"/>
</g></g><g transform="translate(128,240) scale(0.16,0.16)"><g transform="" style="fill: rgb(0, 0, 0);">
<rect width="100" height="100"/>
</g></g><g transform="translate(144,240) scale(0.16,0.16)"><g transform="" style="fill: rgb(0, 0, 0);">
<g>
	<path d="M100,0H0v100h65.625c9.506,0,17.611-3.354,24.316-10.059S100,75.131,100,65.625V0z"/>
</g>
</g></g><g transform="translate(208,240) scale(0.16,0.16)"><g transform="" style="fill: rgb(0, 0, 0);">
<g>
	<path d="M100,0H0v65.625c0,9.506,3.353,17.611,10.059,24.316S24.87,100,34.375,100H100V0z"/>
</g>
</g></g><g transform="translate(224,240) scale(0.16,0.16)"><g transform="" style="fill: rgb(0, 0, 0);">
<rect width="100" height="100"/>
</g></g><g transform="translate(240,240) scale(0.16,0.16)"><g transform="" style="fill: rgb(0, 0, 0);">
<rect width="100" height="100"/>
</g></g><g transform="translate(256,240) scale(0.16,0.16)"><g transform="" style="fill: rgb(0, 0, 0);">
<rect width="100" height="100"/>
</g></g><g transform="translate(272,240) scale(0.16,0.16)"><g transform="" style="fill: rgb(0, 0, 0);">
<rect width="100" height="100"/>
</g></g><g transform="translate(304,240) scale(0.16,0.16)"><g transform="" style="fill: rgb(0, 0, 0);">
<polygon points="99.999,49.999 99.998,49.999 49.999,0 0,49.999 -0.001,49.999 -0.001,50 0,50 49.999,99.999 99.998,50 99.999,50 
	99.998,50 "/>
</g></g><g transform="translate(336,240) scale(0.16,0.16)"><g transform="" style="fill: rgb(0, 0, 0);">
<polygon points="100,100 50,0 50,0 0,100 "/>
</g></g><g transform="translate(368,240) scale(0.16,0.16)"><g transform="" style="fill: rgb(0, 0, 0);">
<rect width="100" height="100"/>
</g></g><g transform="translate(416,240) scale(0.16,0.16)"><g transform="" style="fill: rgb(0, 0, 0);">
<rect width="100" height="100"/>
</g></g><g transform="translate(480,240) scale(0.16,0.16)"><g transform="" style="fill: rgb(0, 0, 0);">
<rect width="100" height="100"/>
</g></g><g transform="translate(512,240) scale(0.16,0.16)"><g transform="" style="fill: rgb(0, 0, 0);">
<polygon points="99.999,49.999 99.998,49.999 49.999,0 0,49.999 -0.001,49.999 -0.001,50 0,50 49.999,99.999 99.998,50 99.999,50 
	99.998,50 "/>
</g></g><g transform="translate(32,256) scale(0.16,0.16)"><g transform="" style="fill: rgb(0, 0, 0);">
<rect width="100" height="100"/>
</g></g><g transform="translate(48,256) scale(0.16,0.16)"><g transform="" style="fill: rgb(0, 0, 0);">
<rect width="100" height="100"/>
</g></g><g transform="translate(64,256) scale(0.16,0.16)"><g transform="" style="fill: rgb(0, 0, 0);">
<rect width="100" height="100"/>
</g></g><g transform="translate(80,256) scale(0.16,0.16)"><g transform="" style="fill: rgb(0, 0, 0);">
<rect width="100" height="100"/>
</g></g><g transform="translate(96,256) scale(0.16,0.16)"><g transform="" style="fill: rgb(0, 0, 0);">
<rect width="100" height="100"/>
</g></g><g transform="translate(112,256) scale(0.16,0.16)"><g transform="" style="fill: rgb(0, 0, 0);">
<rect width="100" height="100"/>
</g></g><g transform="translate(176,256) scale(0.16,0.16)"><g transform="" style="fill: rgb(0, 0, 0);">
<polygon points="100,100 0,50 0,50 100,0 "/>
</g></g><g transform="translate(192,256) scale(0.16,0.16)"><g transform="" style="fill: rgb(0, 0, 0);">
<g>
	<path d="M100,34.375c0-9.505-3.354-17.611-10.059-24.316S75.131,0,65.625,0H0v100h100V34.375z"/>
</g>
</g></g><g transform="translate(256,256) scale(0.16,0.16)"><g transform="" style="fill: rgb(0, 0, 0);">
<rect width="100" height="100"/>
</g></g><g transform="translate(272,256) scale(0.16,0.16)"><g transform="" style="fill: rgb(0, 0, 0);">
<rect width="100" height="100"/>
</g></g><g transform="translate(288,256) scale(0.16,0.16)"><g transform="" style="fill: rgb(0, 0, 0);">
<polygon points="0,100 100,50 100,50 0,0 "/>
</g></g><g transform="translate(320,256) scale(0.16,0.16)"><g transform="" style="fill: rgb(0, 0, 0);">
<polygon points="100,100 0,50 0,50 100,0 "/>
</g></g><g transform="translate(336,256) scale(0.16,0.16)"><g transform="" style="fill: rgb(0, 0, 0);">
<g>
	<path d="M100,0H0v100h65.625c9.506,0,17.611-3.354,24.316-10.059S100,75.131,100,65.625V0z"/>
</g>
</g></g><g transform="translate(368,256) scale(0.16,0.16)"><g transform="" style="fill: rgb(0, 0, 0);">
<rect width="100" height="100"/>
</g></g><g transform="translate(416,256) scale(0.16,0.16)"><g transform="" style="fill: rgb(0, 0, 0);">
<polygon points="0,-0.001 50,99.999 50,99.999 100,-0.001 "/>
</g></g><g transform="translate(448,256) scale(0.16,0.16)"><g transform="" style="fill: rgb(0, 0, 0);">
<polygon points="99.999,49.999 99.998,49.999 49.999,0 0,49.999 -0.001,49.999 -0.001,50 0,50 49.999,99.999 99.998,50 99.999,50 
	99.998,50 "/>
</g></g><g transform="translate(480,256) scale(0.16,0.16)"><g transform="" style="fill: rgb(0, 0, 0);">
<g>
	<path d="M100,0H0v65.625c0,9.506,3.353,17.611,10.059,24.316S24.87,100,34.375,100H100V0z"/>
</g>
</g></g><g transform="translate(496,256) scale(0.16,0.16)"><g transform="" style="fill: rgb(0, 0, 0);">
<g>
	<path d="M100,34.375c0-9.505-3.354-17.611-10.059-24.316S75.131,0,65.625,0H0v100h100V34.375z"/>
</g>
</g></g><g transform="translate(16,272) scale(0.16,0.16)"><g transform="" style="fill: rgb(0, 0, 0);">
<g>
	<path d="M100,34.375V0H34.375C24.87,0,16.764,3.353,10.059,10.059S0,24.87,0,34.375V100h100V34.375z"/>
</g>
</g></g><g transform="translate(32,272) scale(0.16,0.16)"><g transform="" style="fill: rgb(0, 0, 0);">
<rect width="100" height="100"/>
</g></g><g transform="translate(48,272) scale(0.16,0.16)"><g transform="" style="fill: rgb(0, 0, 0);">
<g>
	<path d="M100,0H0v100h65.625c9.506,0,17.611-3.354,24.316-10.059S100,75.131,100,65.625V0z"/>
</g>
</g></g><g transform="translate(112,272) scale(0.16,0.16)"><g transform="" style="fill: rgb(0, 0, 0);">
<g>
	<path d="M100,0H0v65.625c0,9.506,3.353,17.611,10.059,24.316S24.87,100,34.375,100H100V0z"/>
</g>
</g></g><g transform="translate(128,272) scale(0.16,0.16)"><g transform="" style="fill: rgb(0, 0, 0);">
<polygon points="0,100 100,50 100,50 0,0 "/>
</g></g><g transform="translate(160,272) scale(0.16,0.16)"><g transform="" style="fill: rgb(0, 0, 0);">
<polygon points="99.999,49.999 99.998,49.999 49.999,0 0,49.999 -0.001,49.999 -0.001,50 0,50 49.999,99.999 99.998,50 99.999,50 
	99.998,50 "/>
</g></g><g transform="translate(192,272) scale(0.16,0.16)"><g transform="" style="fill: rgb(0, 0, 0);">
<rect width="100" height="100"/>
</g></g><g transform="translate(224,272) scale(0.16,0.16)"><g transform="" style="fill: rgb(0, 0, 0);">
<polygon points="100,100 0,50 0,50 100,0 "/>
</g></g><g transform="translate(240,272) scale(0.16,0.16)"><g transform="" style="fill: rgb(0, 0, 0);">
<rect width="100" height="100"/>
</g></g><g transform="translate(256,272) scale(0.16,0.16)"><g transform="" style="fill: rgb(0, 0, 0);">
<rect width="100" height="100"/>
</g></g><g transform="translate(368,272) scale(0.16,0.16)"><g transform="" style="fill: rgb(0, 0, 0);">
<rect width="100" height="100"/>
</g></g><g transform="translate(384,272) scale(0.16,0.16)"><g transform="" style="fill: rgb(0, 0, 0);">
<rect width="100" height="100"/>
</g></g><g transform="translate(400,272) scale(0.16,0.16)"><g transform="" style="fill: rgb(0, 0, 0);">
<polygon points="0,100 100,50 100,50 0,0 "/>
</g></g><g transform="translate(432,272) scale(0.16,0.16)"><g transform="" style="fill: rgb(0, 0, 0);">
<polygon points="99.999,49.999 99.998,49.999 49.999,0 0,49.999 -0.001,49.999 -0.001,50 0,50 49.999,99.999 99.998,50 99.999,50 
	99.998,50 "/>
</g></g><g transform="translate(496,272) scale(0.16,0.16)"><g transform="" style="fill: rgb(0, 0, 0);">
<g>
	<path d="M100,0H0v65.625c0,9.506,3.353,17.611,10.059,24.316S24.87,100,34.375,100H100V0z"/>
</g>
</g></g><g transform="translate(512,272) scale(0.16,0.16)"><g transform="" style="fill: rgb(0, 0, 0);">
<polygon points="0,100 100,50 100,50 0,0 "/>
</g></g><g transform="translate(16,288) scale(0.16,0.16)"><g transform="" style="fill: rgb(0, 0, 0);">
<rect width="100" height="100"/>
</g></g><g transform="translate(32,288) scale(0.16,0.16)"><g transform="" style="fill: rgb(0, 0, 0);">
<rect width="100" height="100"/>
</g></g><g transform="translate(64,288) scale(0.16,0.16)"><g transform="" style="fill: rgb(0, 0, 0);">
<g>
	<path d="M100,34.375V0H34.375C24.87,0,16.764,3.353,10.059,10.059S0,24.87,0,34.375V100h100V34.375z"/>
</g>
</g></g><g transform="translate(80,288) scale(0.16,0.16)"><g transform="" style="fill: rgb(0, 0, 0);">
<rect width="100" height="100"/>
</g></g><g transform="translate(96,288) scale(0.16,0.16)"><g transform="" style="fill: rgb(0, 0, 0);">
<polygon points="0,100 100,50 100,50 0,0 "/>
</g></g><g transform="translate(144,288) scale(0.16,0.16)"><g transform="" style="fill: rgb(0, 0, 0);">
<polygon points="99.999,49.999 99.998,49.999 49.999,0 0,49.999 -0.001,49.999 -0.001,50 0,50 49.999,99.999 99.998,50 99.999,50 
	99.998,50 "/>
</g></g><g transform="translate(192,288) scale(0.16,0.16)"><g transform="" style="fill: rgb(0, 0, 0);">
<polygon points="0,-0.001 50,99.999 50,99.999 100,-0.001 "/>
</g></g><g transform="translate(256,288) scale(0.16,0.16)"><g transform="" style="fill: rgb(0, 0, 0);">
<polygon points="0,-0.001 50,99.999 50,99.999 100,-0.001 "/>
</g></g><g transform="translate(304,288) scale(0.16,0.16)"><g transform="" style="fill: rgb(0, 0, 0);">
<polygon points="99.999,49.999 99.998,49.999 49.999,0 0,49.999 -0.001,49.999 -0.001,50 0,50 49.999,99.999 99.998,50 99.999,50 
	99.998,50 "/>
</g></g><g transform="translate(368,288) scale(0.16,0.16)"><g transform="" style="fill: rgb(0, 0, 0);">
<g>
	<path d="M100,0H0v65.625c0,9.506,3.353,17.611,10.059,24.316S24.87,100,34.375,100H100V0z"/>
</g>
</g></g><g transform="translate(384,288) scale(0.16,0.16)"><g transform="" style="fill: rgb(0, 0, 0);">
<g>
	<path d="M100,0H0v100h65.625c9.506,0,17.611-3.354,24.316-10.059S100,75.131,100,65.625V0z"/>
</g>
</g></g><g transform="translate(448,288) scale(0.16,0.16)"><g transform="" style="fill: rgb(0, 0, 0);">
<polygon points="100,100 0,50 0,50 100,0 "/>
</g></g><g transform="translate(464,288) scale(0.16,0.16)"><g transform="" style="fill: rgb(0, 0, 0);">
<polygon points="0,100 100,50 100,50 0,0 "/>
</g></g><g transform="translate(0,304) scale(0.16,0.16)"><g transform="" style="fill: rgb(0, 0, 0);">
<g>
	<path d="M100,34.375V0H34.375C24.87,0,16.764,3.353,10.059,10.059S0,24.87,0,34.375V100h100V34.375z"/>
</g>
</g></g><g transform="translate(16,304) scale(0.16,0.16)"><g transform="" style="fill: rgb(0, 0, 0);">
<rect width="100" height="100"/>
</g></g><g transform="translate(32,304) scale(0.16,0.16)"><g transform="" style="fill: rgb(0, 0, 0);">
<g>
	<path d="M100,0H0v100h65.625c9.506,0,17.611-3.354,24.316-10.059S100,75.131,100,65.625V0z"/>
</g>
</g></g><g transform="translate(64,304) scale(0.16,0.16)"><g transform="" style="fill: rgb(0, 0, 0);">
<rect width="100" height="100"/>
</g></g><g transform="translate(112,304) scale(0.16,0.16)"><g transform="" style="fill: rgb(0, 0, 0);">
<polygon points="100,100 50,0 50,0 0,100 "/>
</g></g><g transform="translate(160,304) scale(0.16,0.16)"><g transform="" style="fill: rgb(0, 0, 0);">
<polygon points="100,100 0,50 0,50 100,0 "/>
</g></g><g transform="translate(176,304) scale(0.16,0.16)"><g transform="" style="fill: rgb(0, 0, 0);">
<g>
	<path d="M100,34.375c0-9.505-3.354-17.611-10.059-24.316S75.131,0,65.625,0H0v100h100V34.375z"/>
</g>
</g></g><g transform="translate(224,304) scale(0.16,0.16)"><g transform="" style="fill: rgb(0, 0, 0);">
<polygon points="100,100 0,50 0,50 100,0 "/>
</g></g><g transform="translate(240,304) scale(0.16,0.16)"><g transform="" style="fill: rgb(0, 0, 0);">
<g>
	<path d="M100,34.375c0-9.505-3.354-17.611-10.059-24.316S75.131,0,65.625,0H0v100h100V34.375z"/>
</g>
</g></g><g transform="translate(272,304) scale(0.16,0.16)"><g transform="" style="fill: rgb(0, 0, 0);">
<polygon points="99.999,49.999 99.998,49.999 49.999,0 0,49.999 -0.001,49.999 -0.001,50 0,50 49.999,99.999 99.998,50 99.999,50 
	99.998,50 "/>
</g></g><g transform="translate(320,304) scale(0.16,0.16)"><g transform="" style="fill: rgb(0, 0, 0);">
<g>
	<path d="M100,34.375V0H34.375C24.87,0,16.764,3.353,10.059,10.059S0,24.87,0,34.375V100h100V34.375z"/>
</g>
</g></g><g transform="translate(336,304) scale(0.16,0.16)"><g transform="" style="fill: rgb(0, 0, 0);">
<rect width="100" height="100"/>
</g></g><g transform="translate(352,304) scale(0.16,0.16)"><g transform="" style="fill: rgb(0, 0, 0);">
<g>
	<path d="M100,34.375c0-9.505-3.354-17.611-10.059-24.316S75.131,0,65.625,0H0v100h100V34.375z"/>
</g>
</g></g><g transform="translate(400,304) scale(0.16,0.16)"><g transform="" style="fill: rgb(0, 0, 0);">
<polygon points="100,100 50,0 50,0 0,100 "/>
</g></g><g transform="translate(432,304) scale(0.16,0.16)"><g transform="" style="fill: rgb(0, 0, 0);">
<polygon points="99.999,49.999 99.998,49.999 49.999,0 0,49.999 -0.001,49.999 -0.001,50 0,50 49.999,99.999 99.998,50 99.999,50 
	99.998,50 "/>
</g></g><g transform="translate(496,304) scale(0.16,0.16)"><g transform="" style="fill: rgb(0, 0, 0);">
<polygon points="99.999,49.999 99.998,49.999 49.999,0 0,49.999 -0.001,49.999 -0.001,50 0,50 49.999,99.999 99.998,50 99.999,50 
	99.998,50 "/>
</g></g><g transform="translate(0,320) scale(0.16,0.16)"><g transform="" style="fill: rgb(0, 0, 0);">
<rect width="100" height="100"/>
</g></g><g transform="translate(48,320) scale(0.16,0.16)"><g transform="" style="fill: rgb(0, 0, 0);">
<polygon points="100,100 0,50 0,50 100,0 "/>
</g></g><g transform="translate(64,320) scale(0.16,0.16)"><g transform="" style="fill: rgb(0, 0, 0);">
<g>
	<path d="M100,0H0v100h65.625c9.506,0,17.611-3.354,24.316-10.059S100,75.131,100,65.625V0z"/>
</g>
</g></g><g transform="translate(96,320) scale(0.16,0.16)"><g transform="" style="fill: rgb(0, 0, 0);">
<polygon points="100,100 0,50 0,50 100,0 "/>
</g></g><g transform="translate(112,320) scale(0.16,0.16)"><g transform="" style="fill: rgb(0, 0, 0);">
<rect width="100" height="100"/>
</g></g><g transform="translate(176,320) scale(0.16,0.16)"><g transform="" style="fill: rgb(0, 0, 0);">
<rect width="100" height="100"/>
</g></g><g transform="translate(192,320) scale(0.16,0.16)"><g transform="" style="fill: rgb(0, 0, 0);">
<g>
	<path d="M100,34.375c0-9.505-3.354-17.611-10.059-24.316S75.131,0,65.625,0H0v100h100V34.375z"/>
</g>
</g></g><g transform="translate(240,320) scale(0.16,0.16)"><g transform="" style="fill: rgb(0, 0, 0);">
<rect width="100" height="100"/>
</g></g><g transform="translate(288,320) scale(0.16,0.16)"><g transform="" style="fill: rgb(0, 0, 0);">
<g>
	<path d="M100,34.375V0H34.375C24.87,0,16.764,3.353,10.059,10.059S0,24.87,0,34.375V100h100V34.375z"/>
</g>
</g></g><g transform="translate(304,320) scale(0.16,0.16)"><g transform="" style="fill: rgb(0, 0, 0);">
<rect width="100" height="100"/>
</g></g><g transform="translate(320,320) scale(0.16,0.16)"><g transform="" style="fill: rgb(0, 0, 0);">
<rect width="100" height="100"/>
</g></g><g transform="translate(336,320) scale(0.16,0.16)"><g transform="" style="fill: rgb(0, 0, 0);">
<rect width="100" height="100"/>
</g></g><g transform="translate(352,320) scale(0.16,0.16)"><g transform="" style="fill: rgb(0, 0, 0);">
<g>
	<path d="M100,0H0v100h65.625c9.506,0,17.611-3.354,24.316-10.059S100,75.131,100,65.625V0z"/>
</g>
</g></g><g transform="translate(384,320) scale(0.16,0.16)"><g transform="" style="fill: rgb(0, 0, 0);">
<polygon points="100,100 0,50 0,50 100,0 "/>
</g></g><g transform="translate(400,320) scale(0.16,0.16)"><g transform="" style="fill: rgb(0, 0, 0);">
<rect width="100" height="100"/>
</g></g><g transform="translate(416,320) scale(0.16,0.16)"><g transform="" style="fill: rgb(0, 0, 0);">
<g>
	<path d="M100,34.375c0-9.505-3.354-17.611-10.059-24.316S75.131,0,65.625,0H0v100h100V34.375z"/>
</g>
</g></g><g transform="translate(448,320) scale(0.16,0.16)"><g transform="" style="fill: rgb(0, 0, 0);">
<polygon points="100,100 0,50 0,50 100,0 "/>
</g></g><g transform="translate(464,320) scale(0.16,0.16)"><g transform="" style="fill: rgb(0, 0, 0);">
<g>
	<path d="M100,34.375c0-9.505-3.354-17.611-10.059-24.316S75.131,0,65.625,0H0v100h100V34.375z"/>
</g>
</g></g><g transform="translate(0,336) scale(0.16,0.16)"><g transform="" style="fill: rgb(0, 0, 0);">
<g>
	<path d="M100,0H0v65.625c0,9.506,3.353,17.611,10.059,24.316S24.87,100,34.375,100H100V0z"/>
</g>
</g></g><g transform="translate(16,336) scale(0.16,0.16)"><g transform="" style="fill: rgb(0, 0, 0);">
<rect width="100" height="100"/>
</g></g><g transform="translate(32,336) scale(0.16,0.16)"><g transform="" style="fill: rgb(0, 0, 0);">
<g>
	<path d="M100,34.375c0-9.505-3.354-17.611-10.059-24.316S75.131,0,65.625,0H0v100h100V34.375z"/>
</g>
</g></g><g transform="translate(112,336) scale(0.16,0.16)"><g transform="" style="fill: rgb(0, 0, 0);">
<g>
	<path d="M100,0H0v65.625c0,9.506,3.353,17.611,10.059,24.316S24.87,100,34.375,100H100V0z"/>
</g>
</g></g><g transform="translate(128,336) scale(0.16,0.16)"><g transform="" style="fill: rgb(0, 0, 0);">
<rect width="100" height="100"/>
</g></g><g transform="translate(144,336) scale(0.16,0.16)"><g transform="" style="fill: rgb(0, 0, 0);">
<rect width="100" height="100"/>
</g></g><g transform="translate(160,336) scale(0.16,0.16)"><g transform="" style="fill: rgb(0, 0, 0);">
<rect width="100" height="100"/>
</g></g><g transform="translate(176,336) scale(0.16,0.16)"><g transform="" style="fill: rgb(0, 0, 0);">
<rect width="100" height="100"/>
</g></g><g transform="translate(192,336) scale(0.16,0.16)"><g transform="" style="fill: rgb(0, 0, 0);">
<rect width="100" height="100"/>
</g></g><g transform="translate(208,336) scale(0.16,0.16)"><g transform="" style="fill: rgb(0, 0, 0);">
<rect width="100" height="100"/>
</g></g><g transform="translate(224,336) scale(0.16,0.16)"><g transform="" style="fill: rgb(0, 0, 0);">
<rect width="100" height="100"/>
</g></g><g transform="translate(240,336) scale(0.16,0.16)"><g transform="" style="fill: rgb(0, 0, 0);">
<g>
	<path d="M100,0H0v100h65.625c9.506,0,17.611-3.354,24.316-10.059S100,75.131,100,65.625V0z"/>
</g>
</g></g><g transform="translate(288,336) scale(0.16,0.16)"><g transform="" style="fill: rgb(0, 0, 0);">
<rect width="100" height="100"/>
</g></g><g transform="translate(320,336) scale(0.16,0.16)"><g transform="" style="fill: rgb(0, 0, 0);">
<rect width="100" height="100"/>
</g></g><g transform="translate(336,336) scale(0.16,0.16)"><g transform="" style="fill: rgb(0, 0, 0);">
<g>
	<path d="M100,0H0v100h65.625c9.506,0,17.611-3.354,24.316-10.059S100,75.131,100,65.625V0z"/>
</g>
</g></g><g transform="translate(416,336) scale(0.16,0.16)"><g transform="" style="fill: rgb(0, 0, 0);">
<g>
	<path d="M100,0H0v65.625c0,9.506,3.353,17.611,10.059,24.316S24.87,100,34.375,100H100V0z"/>
</g>
</g></g><g transform="translate(432,336) scale(0.16,0.16)"><g transform="" style="fill: rgb(0, 0, 0);">
<polygon points="0,100 100,50 100,50 0,0 "/>
</g></g><g transform="translate(464,336) scale(0.16,0.16)"><g transform="" style="fill: rgb(0, 0, 0);">
<g>
	<path d="M100,0H0v65.625c0,9.506,3.353,17.611,10.059,24.316S24.87,100,34.375,100H100V0z"/>
</g>
</g></g><g transform="translate(480,336) scale(0.16,0.16)"><g transform="" style="fill: rgb(0, 0, 0);">
<rect width="100" height="100"/>
</g></g><g transform="translate(496,336) scale(0.16,0.16)"><g transform="" style="fill: rgb(0, 0, 0);">
<g>
	<path d="M100,34.375c0-9.505-3.354-17.611-10.059-24.316S75.131,0,65.625,0H0v100h100V34.375z"/>
</g>
</g></g><g transform="translate(32,352) scale(0.16,0.16)"><g transform="" style="fill: rgb(0, 0, 0);">
<rect width="100" height="100"/>
</g></g><g transform="translate(48,352) scale(0.16,0.16)"><g transform="" style="fill: rgb(0, 0, 0);">
<polygon points="0,100 100,50 100,50 0,0 "/>
</g></g><g transform="translate(80,352) scale(0.16,0.16)"><g transform="" style="fill: rgb(0, 0, 0);">
<g>
	<path d="M100,34.375V0H34.375C24.87,0,16.764,3.353,10.059,10.059S0,24.87,0,34.375V100h100V34.375z"/>
</g>
</g></g><g transform="translate(96,352) scale(0.16,0.16)"><g transform="" style="fill: rgb(0, 0, 0);">
<polygon points="0,100 100,50 100,50 0,0 "/>
</g></g><g transform="translate(160,352) scale(0.16,0.16)"><g transform="" style="fill: rgb(0, 0, 0);">
<polygon points="0,-0.001 50,99.999 50,99.999 100,-0.001 "/>
</g></g><g transform="translate(192,352) scale(0.16,0.16)"><g transform="" style="fill: rgb(0, 0, 0);">
<polygon points="0,-0.001 50,99.999 50,99.999 100,-0.001 "/>
</g></g><g transform="translate(224,352) scale(0.16,0.16)"><g transform="" style="fill: rgb(0, 0, 0);">
<rect width="100" height="100"/>
</g></g><g transform="translate(256,352) scale(0.16,0.16)"><g transform="" style="fill: rgb(0, 0, 0);">
<g>
	<path d="M100,34.375V0H34.375C24.87,0,16.764,3.353,10.059,10.059S0,24.87,0,34.375V100h100V34.375z"/>
</g>
</g></g><g transform="translate(272,352) scale(0.16,0.16)"><g transform="" style="fill: rgb(0, 0, 0);">
<rect width="100" height="100"/>
</g></g><g transform="translate(288,352) scale(0.16,0.16)"><g transform="" style="fill: rgb(0, 0, 0);">
<rect width="100" height="100"/>
</g></g><g transform="translate(304,352) scale(0.16,0.16)"><g transform="" style="fill: rgb(0, 0, 0);">
<rect width="100" height="100"/>
</g></g><g transform="translate(320,352) scale(0.16,0.16)"><g transform="" style="fill: rgb(0, 0, 0);">
<g>
	<path d="M100,0H0v100h65.625c9.506,0,17.611-3.354,24.316-10.059S100,75.131,100,65.625V0z"/>
</g>
</g></g><g transform="translate(448,352) scale(0.16,0.16)"><g transform="" style="fill: rgb(0, 0, 0);">
<polygon points="100,100 50,0 50,0 0,100 "/>
</g></g><g transform="translate(496,352) scale(0.16,0.16)"><g transform="" style="fill: rgb(0, 0, 0);">
<rect width="100" height="100"/>
</g></g><g transform="translate(32,368) scale(0.16,0.16)"><g transform="" style="fill: rgb(0, 0, 0);">
<rect width="100" height="100"/>
</g></g><g transform="translate(80,368) scale(0.16,0.16)"><g transform="" style="fill: rgb(0, 0, 0);">
<rect width="100" height="100"/>
</g></g><g transform="translate(144,368) scale(0.16,0.16)"><g transform="" style="fill: rgb(0, 0, 0);">
<polygon points="99.999,49.999 99.998,49.999 49.999,0 0,49.999 -0.001,49.999 -0.001,50 0,50 49.999,99.999 99.998,50 99.999,50 
	99.998,50 "/>
</g></g><g transform="translate(176,368) scale(0.16,0.16)"><g transform="" style="fill: rgb(0, 0, 0);">
<polygon points="99.999,49.999 99.998,49.999 49.999,0 0,49.999 -0.001,49.999 -0.001,50 0,50 49.999,99.999 99.998,50 99.999,50 
	99.998,50 "/>
</g></g><g transform="translate(224,368) scale(0.16,0.16)"><g transform="" style="fill: rgb(0, 0, 0);">
<rect width="100" height="100"/>
</g></g><g transform="translate(256,368) scale(0.16,0.16)"><g transform="" style="fill: rgb(0, 0, 0);">
<g>
	<path d="M100,0H0v65.625c0,9.506,3.353,17.611,10.059,24.316S24.87,100,34.375,100H100V0z"/>
</g>
</g></g><g transform="translate(272,368) scale(0.16,0.16)"><g transform="" style="fill: rgb(0, 0, 0);">
<rect width="100" height="100"/>
</g></g><g transform="translate(288,368) scale(0.16,0.16)"><g transform="" style="fill: rgb(0, 0, 0);">
<rect width="100" height="100"/>
</g></g><g transform="translate(304,368) scale(0.16,0.16)"><g transform="" style="fill: rgb(0, 0, 0);">
<rect width="100" height="100"/>
</g></g><g transform="translate(336,368) scale(0.16,0.16)"><g transform="" style="fill: rgb(0, 0, 0);">
<polygon points="100,100 50,0 50,0 0,100 "/>
</g></g><g transform="translate(384,368) scale(0.16,0.16)"><g transform="" style="fill: rgb(0, 0, 0);">
<polygon points="100,100 50,0 50,0 0,100 "/>
</g></g><g transform="translate(432,368) scale(0.16,0.16)"><g transform="" style="fill: rgb(0, 0, 0);">
<g>
	<path d="M100,34.375V0H34.375C24.87,0,16.764,3.353,10.059,10.059S0,24.87,0,34.375V100h100V34.375z"/>
</g>
</g></g><g transform="translate(448,368) scale(0.16,0.16)"><g transform="" style="fill: rgb(0, 0, 0);">
<rect width="100" height="100"/>
</g></g><g transform="translate(496,368) scale(0.16,0.16)"><g transform="" style="fill: rgb(0, 0, 0);">
<rect width="100" height="100"/>
</g></g><g transform="translate(0,384) scale(0.16,0.16)"><g transform="" style="fill: rgb(0, 0, 0);">
<polygon points="100,100 0,50 0,50 100,0 "/>
</g></g><g transform="translate(16,384) scale(0.16,0.16)"><g transform="" style="fill: rgb(0, 0, 0);">
<rect width="100" height="100"/>
</g></g><g transform="translate(32,384) scale(0.16,0.16)"><g transform="" style="fill: rgb(0, 0, 0);">
<rect width="100" height="100"/>
</g></g><g transform="translate(48,384) scale(0.16,0.16)"><g transform="" style="fill: rgb(0, 0, 0);">
<rect width="100" height="100"/>
</g></g><g transform="translate(64,384) scale(0.16,0.16)"><g transform="" style="fill: rgb(0, 0, 0);">
<rect width="100" height="100"/>
</g></g><g transform="translate(80,384) scale(0.16,0.16)"><g transform="" style="fill: rgb(0, 0, 0);">
<rect width="100" height="100"/>
</g></g><g transform="translate(96,384) scale(0.16,0.16)"><g transform="" style="fill: rgb(0, 0, 0);">
<rect width="100" height="100"/>
</g></g><g transform="translate(112,384) scale(0.16,0.16)"><g transform="" style="fill: rgb(0, 0, 0);">
<polygon points="0,100 100,50 100,50 0,0 "/>
</g></g><g transform="translate(224,384) scale(0.16,0.16)"><g transform="" style="fill: rgb(0, 0, 0);">
<rect width="100" height="100"/>
</g></g><g transform="translate(240,384) scale(0.16,0.16)"><g transform="" style="fill: rgb(0, 0, 0);">
<g>
	<path d="M100,34.375c0-9.505-3.354-17.611-10.059-24.316S75.131,0,65.625,0H0v100h100V34.375z"/>
</g>
</g></g><g transform="translate(304,384) scale(0.16,0.16)"><g transform="" style="fill: rgb(0, 0, 0);">
<polygon points="0,-0.001 50,99.999 50,99.999 100,-0.001 "/>
</g></g><g transform="translate(336,384) scale(0.16,0.16)"><g transform="" style="fill: rgb(0, 0, 0);">
<g>
	<path d="M100,0H0v65.625c0,9.506,3.353,17.611,10.059,24.316S24.87,100,34.375,100H100V0z"/>
</g>
</g></g><g transform="translate(352,384) scale(0.16,0.16)"><g transform="" style="fill: rgb(0, 0, 0);">
<rect width="100" height="100"/>
</g></g><g transform="translate(368,384) scale(0.16,0.16)"><g transform="" style="fill: rgb(0, 0, 0);">
<rect width="100" height="100"/>
</g></g><g transform="translate(384,384) scale(0.16,0.16)"><g transform="" style="fill: rgb(0, 0, 0);">
<rect width="100" height="100"/>
</g></g><g transform="translate(400,384) scale(0.16,0.16)"><g transform="" style="fill: rgb(0, 0, 0);">
<rect width="100" height="100"/>
</g></g><g transform="translate(416,384) scale(0.16,0.16)"><g transform="" style="fill: rgb(0, 0, 0);">
<rect width="100" height="100"/>
</g></g><g transform="translate(432,384) scale(0.16,0.16)"><g transform="" style="fill: rgb(0, 0, 0);">
<rect width="100" height="100"/>
</g></g><g transform="translate(448,384) scale(0.16,0.16)"><g transform="" style="fill: rgb(0, 0, 0);">
<rect width="100" height="100"/>
</g></g><g transform="translate(496,384) scale(0.16,0.16)"><g transform="" style="fill: rgb(0, 0, 0);">
<rect width="100" height="100"/>
</g></g><g transform="translate(128,400) scale(0.16,0.16)"><g transform="" style="fill: rgb(0, 0, 0);">
<polygon points="100,100 50,0 50,0 0,100 "/>
</g></g><g transform="translate(224,400) scale(0.16,0.16)"><g transform="" style="fill: rgb(0, 0, 0);">
<g>
	<path d="M100,0H0v65.625c0,9.506,3.353,17.611,10.059,24.316S24.87,100,34.375,100H100V0z"/>
</g>
</g></g><g transform="translate(240,400) scale(0.16,0.16)"><g transform="" style="fill: rgb(0, 0, 0);">
<rect width="100" height="100"/>
</g></g><g transform="translate(256,400) scale(0.16,0.16)"><g transform="" style="fill: rgb(0, 0, 0);">
<rect width="100" height="100"/>
</g></g><g transform="translate(272,400) scale(0.16,0.16)"><g transform="" style="fill: rgb(0, 0, 0);">
<g>
	<path d="M100,34.375c0-9.505-3.354-17.611-10.059-24.316S75.131,0,65.625,0H0v100h100V34.375z"/>
</g>
</g></g><g transform="translate(384,400) scale(0.16,0.16)"><g transform="" style="fill: rgb(0, 0, 0);">
<rect width="100" height="100"/>
</g></g><g transform="translate(448,400) scale(0.16,0.16)"><g transform="" style="fill: rgb(0, 0, 0);">
<rect width="100" height="100"/>
</g></g><g transform="translate(464,400) scale(0.16,0.16)"><g transform="" style="fill: rgb(0, 0, 0);">
<rect width="100" height="100"/>
</g></g><g transform="translate(480,400) scale(0.16,0.16)"><g transform="" style="fill: rgb(0, 0, 0);">
<rect width="100" height="100"/>
</g></g><g transform="translate(496,400) scale(0.16,0.16)"><g transform="" style="fill: rgb(0, 0, 0);">
<rect width="100" height="100"/>
</g></g><g transform="translate(128,416) scale(0.16,0.16)"><g transform="" style="fill: rgb(0, 0, 0);">
<rect width="100" height="100"/>
</g></g><g transform="translate(176,416) scale(0.16,0.16)"><g transform="" style="fill: rgb(0, 0, 0);">
<polygon points="100,100 0,50 0,50 100,0 "/>
</g></g><g transform="translate(192,416) scale(0.16,0.16)"><g transform="" style="fill: rgb(0, 0, 0);">
<rect width="100" height="100"/>
</g></g><g transform="translate(208,416) scale(0.16,0.16)"><g transform="" style="fill: rgb(0, 0, 0);">
<g>
	<path d="M100,34.375c0-9.505-3.354-17.611-10.059-24.316S75.131,0,65.625,0H0v100h100V34.375z"/>
</g>
</g></g><g transform="translate(272,416) scale(0.16,0.16)"><g transform="" style="fill: rgb(0, 0, 0);">
<polygon points="0,-0.001 50,99.999 50,99.999 100,-0.001 "/>
</g></g><g transform="translate(320,416) scale(0.16,0.16)"><g transform="" style="fill: rgb(0, 0, 0);">
<polygon points="100,100 0,50 0,50 100,0 "/>
</g></g><g transform="translate(336,416) scale(0.16,0.16)"><g transform="" style="fill: rgb(0, 0, 0);">
<rect width="100" height="100"/>
</g></g><g transform="translate(352,416) scale(0.16,0.16)"><g transform="" style="fill: rgb(0, 0, 0);">
<polygon points="0,100 100,50 100,50 0,0 "/>
</g></g><g transform="translate(384,416) scale(0.16,0.16)"><g transform="" style="fill: rgb(0, 0, 0);">
<rect width="100" height="100"/>
</g></g><g transform="translate(416,416) scale(0.16,0.16)"><g transform="" style="fill: rgb(0, 0, 0);">
<polygon points="99.999,49.999 99.998,49.999 49.999,0 0,49.999 -0.001,49.999 -0.001,50 0,50 49.999,99.999 99.998,50 99.999,50 
	99.998,50 "/>
</g></g><g transform="translate(448,416) scale(0.16,0.16)"><g transform="" style="fill: rgb(0, 0, 0);">
<rect width="100" height="100"/>
</g></g><g transform="translate(464,416) scale(0.16,0.16)"><g transform="" style="fill: rgb(0, 0, 0);">
<g>
	<path d="M100,0H0v100h65.625c9.506,0,17.611-3.354,24.316-10.059S100,75.131,100,65.625V0z"/>
</g>
</g></g><g transform="translate(496,416) scale(0.16,0.16)"><g transform="" style="fill: rgb(0, 0, 0);">
<rect width="100" height="100"/>
</g></g><g transform="translate(128,432) scale(0.16,0.16)"><g transform="" style="fill: rgb(0, 0, 0);">
<rect width="100" height="100"/>
</g></g><g transform="translate(208,432) scale(0.16,0.16)"><g transform="" style="fill: rgb(0, 0, 0);">
<g>
	<path d="M100,0H0v65.625c0,9.506,3.353,17.611,10.059,24.316S24.87,100,34.375,100H100V0z"/>
</g>
</g></g><g transform="translate(224,432) scale(0.16,0.16)"><g transform="" style="fill: rgb(0, 0, 0);">
<rect width="100" height="100"/>
</g></g><g transform="translate(240,432) scale(0.16,0.16)"><g transform="" style="fill: rgb(0, 0, 0);">
<g>
	<path d="M100,34.375c0-9.505-3.354-17.611-10.059-24.316S75.131,0,65.625,0H0v100h100V34.375z"/>
</g>
</g></g><g transform="translate(288,432) scale(0.16,0.16)"><g transform="" style="fill: rgb(0, 0, 0);">
<polygon points="100,100 0,50 0,50 100,0 "/>
</g></g><g transform="translate(304,432) scale(0.16,0.16)"><g transform="" style="fill: rgb(0, 0, 0);">
<g>
	<path d="M100,34.375c0-9.505-3.354-17.611-10.059-24.316S75.131,0,65.625,0H0v100h100V34.375z"/>
</g>
</g></g><g transform="translate(336,432) scale(0.16,0.16)"><g transform="" style="fill: rgb(0, 0, 0);">
<polygon points="0,-0.001 50,99.999 50,99.999 100,-0.001 "/>
</g></g><g transform="translate(368,432) scale(0.16,0.16)"><g transform="" style="fill: rgb(0, 0, 0);">
<polygon points="100,100 0,50 0,50 100,0 "/>
</g></g><g transform="translate(384,432) scale(0.16,0.16)"><g transform="" style="fill: rgb(0, 0, 0);">
<rect width="100" height="100"/>
</g></g><g transform="translate(448,432) scale(0.16,0.16)"><g transform="" style="fill: rgb(0, 0, 0);">
<rect width="100" height="100"/>
</g></g><g transform="translate(496,432) scale(0.16,0.16)"><g transform="" style="fill: rgb(0, 0, 0);">
<g>
	<path d="M100,0H0v65.625c0,9.506,3.353,17.611,10.059,24.316S24.87,100,34.375,100H100V0z"/>
</g>
</g></g><g transform="translate(512,432) scale(0.16,0.16)"><g transform="" style="fill: rgb(0, 0, 0);">
<polygon points="0,100 100,50 100,50 0,0 "/>
</g></g><g transform="translate(128,448) scale(0.16,0.16)"><g transform="" style="fill: rgb(0, 0, 0);">
<polygon points="0,-0.001 50,99.999 50,99.999 100,-0.001 "/>
</g></g><g transform="translate(176,448) scale(0.16,0.16)"><g transform="" style="fill: rgb(0, 0, 0);">
<polygon points="100,100 50,0 50,0 0,100 "/>
</g></g><g transform="translate(240,448) scale(0.16,0.16)"><g transform="" style="fill: rgb(0, 0, 0);">
<rect width="100" height="100"/>
</g></g><g transform="translate(304,448) scale(0.16,0.16)"><g transform="" style="fill: rgb(0, 0, 0);">
<g>
	<path d="M100,0H0v65.625c0,9.506,3.353,17.611,10.059,24.316S24.87,100,34.375,100H100V0z"/>
</g>
</g></g><g transform="translate(320,448) scale(0.16,0.16)"><g transform="" style="fill: rgb(0, 0, 0);">
<g>
	<path d="M100,34.375c0-9.505-3.354-17.611-10.059-24.316S75.131,0,65.625,0H0v100h100V34.375z"/>
</g>
</g></g><g transform="translate(384,448) scale(0.16,0.16)"><g transform="" style="fill: rgb(0, 0, 0);">
<g>
	<path d="M100,0H0v65.625c0,9.506,3.353,17.611,10.059,24.316S24.87,100,34.375,100H100V0z"/>
</g>
</g></g><g transform="translate(400,448) scale(0.16,0.16)"><g transform="" style="fill: rgb(0, 0, 0);">
<rect width="100" height="100"/>
</g></g><g transform="translate(416,448) scale(0.16,0.16)"><g transform="" style="fill: rgb(0, 0, 0);">
<rect width="100" height="100"/>
</g></g><g transform="translate(432,448) scale(0.16,0.16)"><g transform="" style="fill: rgb(0, 0, 0);">
<rect width="100" height="100"/>
</g></g><g transform="translate(448,448) scale(0.16,0.16)"><g transform="" style="fill: rgb(0, 0, 0);">
<rect width="100" height="100"/>
</g></g><g transform="translate(176,464) scale(0.16,0.16)"><g transform="" style="fill: rgb(0, 0, 0);">
<g>
	<path d="M100,0H0v65.625c0,9.506,3.353,17.611,10.059,24.316S24.87,100,34.375,100H100V0z"/>
</g>
</g></g><g transform="translate(192,464) scale(0.16,0.16)"><g transform="" style="fill: rgb(0, 0, 0);">
<rect width="100" height="100"/>
</g></g><g transform="translate(208,464) scale(0.16,0.16)"><g transform="" style="fill: rgb(0, 0, 0);">
<polygon points="0,100 100,50 100,50 0,0 "/>
</g></g><g transform="translate(240,464) scale(0.16,0.16)"><g transform="" style="fill: rgb(0, 0, 0);">
<rect width="100" height="100"/>
</g></g><g transform="translate(256,464) scale(0.16,0.16)"><g transform="" style="fill: rgb(0, 0, 0);">
<rect width="100" height="100"/>
</g></g><g transform="translate(272,464) scale(0.16,0.16)"><g transform="" style="fill: rgb(0, 0, 0);">
<g>
	<path d="M100,34.375c0-9.505-3.354-17.611-10.059-24.316S75.131,0,65.625,0H0v100h100V34.375z"/>
</g>
</g></g><g transform="translate(320,464) scale(0.16,0.16)"><g transform="" style="fill: rgb(0, 0, 0);">
<rect width="100" height="100"/>
</g></g><g transform="translate(336,464) scale(0.16,0.16)"><g transform="" style="fill: rgb(0, 0, 0);">
<rect width="100" height="100"/>
</g></g><g transform="translate(352,464) scale(0.16,0.16)"><g transform="" style="fill: rgb(0, 0, 0);">
<rect width="100" height="100"/>
</g></g><g transform="translate(368,464) scale(0.16,0.16)"><g transform="" style="fill: rgb(0, 0, 0);">
<polygon points="0,100 100,50 100,50 0,0 "/>
</g></g><g transform="translate(416,464) scale(0.16,0.16)"><g transform="" style="fill: rgb(0, 0, 0);">
<rect width="100" height="100"/>
</g></g><g transform="translate(432,464) scale(0.16,0.16)"><g transform="" style="fill: rgb(0, 0, 0);">
<rect width="100" height="100"/>
</g></g><g transform="translate(448,464) scale(0.16,0.16)"><g transform="" style="fill: rgb(0, 0, 0);">
<rect width="100" height="100"/>
</g></g><g transform="translate(480,464) scale(0.16,0.16)"><g transform="" style="fill: rgb(0, 0, 0);">
<polygon points="99.999,49.999 99.998,49.999 49.999,0 0,49.999 -0.001,49.999 -0.001,50 0,50 49.999,99.999 99.998,50 99.999,50 
	99.998,50 "/>
</g></g><g transform="translate(512,464) scale(0.16,0.16)"><g transform="" style="fill: rgb(0, 0, 0);">
<polygon points="99.999,49.999 99.998,49.999 49.999,0 0,49.999 -0.001,49.999 -0.001,50 0,50 49.999,99.999 99.998,50 99.999,50 
	99.998,50 "/>
</g></g><g transform="translate(160,480) scale(0.16,0.16)"><g transform="" style="fill: rgb(0, 0, 0);">
<polygon points="99.999,49.999 99.998,49.999 49.999,0 0,49.999 -0.001,49.999 -0.001,50 0,50 49.999,99.999 99.998,50 99.999,50 
	99.998,50 "/>
</g></g><g transform="translate(240,480) scale(0.16,0.16)"><g transform="" style="fill: rgb(0, 0, 0);">
<rect width="100" height="100"/>
</g></g><g transform="translate(256,480) scale(0.16,0.16)"><g transform="" style="fill: rgb(0, 0, 0);">
<rect width="100" height="100"/>
</g></g><g transform="translate(272,480) scale(0.16,0.16)"><g transform="" style="fill: rgb(0, 0, 0);">
<g>
	<path d="M100,0H0v100h65.625c9.506,0,17.611-3.354,24.316-10.059S100,75.131,100,65.625V0z"/>
</g>
</g></g><g transform="translate(320,480) scale(0.16,0.16)"><g transform="" style="fill: rgb(0, 0, 0);">
<rect width="100" height="100"/>
</g></g><g transform="translate(400,480) scale(0.16,0.16)"><g transform="" style="fill: rgb(0, 0, 0);">
<g>
	<path d="M100,34.375V0H34.375C24.87,0,16.764,3.353,10.059,10.059S0,24.87,0,34.375V100h100V34.375z"/>
</g>
</g></g><g transform="translate(416,480) scale(0.16,0.16)"><g transform="" style="fill: rgb(0, 0, 0);">
<g>
	<path d="M100,0H0v100h65.625c9.506,0,17.611-3.354,24.316-10.059S100,75.131,100,65.625V0z"/>
</g>
</g></g><g transform="translate(448,480) scale(0.16,0.16)"><g transform="" style="fill: rgb(0, 0, 0);">
<rect width="100" height="100"/>
</g></g><g transform="translate(144,496) scale(0.16,0.16)"><g transform="" style="fill: rgb(0, 0, 0);">
<polygon points="99.999,49.999 99.998,49.999 49.999,0 0,49.999 -0.001,49.999 -0.001,50 0,50 49.999,99.999 99.998,50 99.999,50 
	99.998,50 "/>
</g></g><g transform="translate(192,496) scale(0.16,0.16)"><g transform="" style="fill: rgb(0, 0, 0);">
<g>
	<path d="M100,34.375V0H34.375C24.87,0,16.764,3.353,10.059,10.059S0,24.87,0,34.375V100h100V34.375z"/>
</g>
</g></g><g transform="translate(208,496) scale(0.16,0.16)"><g transform="" style="fill: rgb(0, 0, 0);">
<rect width="100" height="100"/>
</g></g><g transform="translate(224,496) scale(0.16,0.16)"><g transform="" style="fill: rgb(0, 0, 0);">
<rect width="100" height="100"/>
</g></g><g transform="translate(240,496) scale(0.16,0.16)"><g transform="" style="fill: rgb(0, 0, 0);">
<rect width="100" height="100"/>
</g></g><g transform="translate(256,496) scale(0.16,0.16)"><g transform="" style="fill: rgb(0, 0, 0);">
<g>
	<path d="M100,0H0v100h65.625c9.506,0,17.611-3.354,24.316-10.059S100,75.131,100,65.625V0z"/>
</g>
</g></g><g transform="translate(288,496) scale(0.16,0.16)"><g transform="" style="fill: rgb(0, 0, 0);">
<polygon points="100,100 0,50 0,50 100,0 "/>
</g></g><g transform="translate(304,496) scale(0.16,0.16)"><g transform="" style="fill: rgb(0, 0, 0);">
<rect width="100" height="100"/>
</g></g><g transform="translate(320,496) scale(0.16,0.16)"><g transform="" style="fill: rgb(0, 0, 0);">
<rect width="100" height="100"/>
</g></g><g transform="translate(352,496) scale(0.16,0.16)"><g transform="" style="fill: rgb(0, 0, 0);">
<g>
	<path d="M100,34.375V0H34.375C24.87,0,16.764,3.353,10.059,10.059S0,24.87,0,34.375V100h100V34.375z"/>
</g>
</g></g><g transform="translate(368,496) scale(0.16,0.16)"><g transform="" style="fill: rgb(0, 0, 0);">
<rect width="100" height="100"/>
</g></g><g transform="translate(384,496) scale(0.16,0.16)"><g transform="" style="fill: rgb(0, 0, 0);">
<rect width="100" height="100"/>
</g></g><g transform="translate(400,496) scale(0.16,0.16)"><g transform="" style="fill: rgb(0, 0, 0);">
<rect width="100" height="100"/>
</g></g><g transform="translate(432,496) scale(0.16,0.16)"><g transform="" style="fill: rgb(0, 0, 0);">
<g>
	<path d="M100,34.375V0H34.375C24.87,0,16.764,3.353,10.059,10.059S0,24.87,0,34.375V100h100V34.375z"/>
</g>
</g></g><g transform="translate(448,496) scale(0.16,0.16)"><g transform="" style="fill: rgb(0, 0, 0);">
<rect width="100" height="100"/>
</g></g><g transform="translate(464,496) scale(0.16,0.16)"><g transform="" style="fill: rgb(0, 0, 0);">
<g>
	<path d="M100,34.375c0-9.505-3.354-17.611-10.059-24.316S75.131,0,65.625,0H0v100h100V34.375z"/>
</g>
</g></g><g transform="translate(160,512) scale(0.16,0.16)"><g transform="" style="fill: rgb(0, 0, 0);">
<polygon points="99.999,49.999 99.998,49.999 49.999,0 0,49.999 -0.001,49.999 -0.001,50 0,50 49.999,99.999 99.998,50 99.999,50 
	99.998,50 "/>
</g></g><g transform="translate(192,512) scale(0.16,0.16)"><g transform="" style="fill: rgb(0, 0, 0);">
<polygon points="0,-0.001 50,99.999 50,99.999 100,-0.001 "/>
</g></g><g transform="translate(224,512) scale(0.16,0.16)"><g transform="" style="fill: rgb(0, 0, 0);">
<g>
	<path d="M100,0H0v65.625c0,9.506,3.353,17.611,10.059,24.316S24.87,100,34.375,100H100V0z"/>
</g>
</g></g><g transform="translate(240,512) scale(0.16,0.16)"><g transform="" style="fill: rgb(0, 0, 0);">
<g>
	<path d="M100,0H0v100h65.625c9.506,0,17.611-3.354,24.316-10.059S100,75.131,100,65.625V0z"/>
</g>
</g></g><g transform="translate(320,512) scale(0.16,0.16)"><g transform="" style="fill: rgb(0, 0, 0);">
<polygon points="0,-0.001 50,99.999 50,99.999 100,-0.001 "/>
</g></g><g transform="translate(352,512) scale(0.16,0.16)"><g transform="" style="fill: rgb(0, 0, 0);">
<g>
	<path d="M100,0H0v65.625c0,9.506,3.353,17.611,10.059,24.316S24.87,100,34.375,100H100V0z"/>
</g>
</g></g><g transform="translate(368,512) scale(0.16,0.16)"><g transform="" style="fill: rgb(0, 0, 0);">
<rect width="100" height="100"/>
</g></g><g transform="translate(384,512) scale(0.16,0.16)"><g transform="" style="fill: rgb(0, 0, 0);">
<rect width="100" height="100"/>
</g></g><g transform="translate(400,512) scale(0.16,0.16)"><g transform="" style="fill: rgb(0, 0, 0);">
<rect width="100" height="100"/>
</g></g><g transform="translate(416,512) scale(0.16,0.16)"><g transform="" style="fill: rgb(0, 0, 0);">
<rect width="100" height="100"/>
</g></g><g transform="translate(432,512) scale(0.16,0.16)"><g transform="" style="fill: rgb(0, 0, 0);">
<g>
	<path d="M100,0H0v100h65.625c9.506,0,17.611-3.354,24.316-10.059S100,75.131,100,65.625V0z"/>
</g>
</g></g><g transform="translate(464,512) scale(0.16,0.16)"><g transform="" style="fill: rgb(0, 0, 0);">
<g>
	<path d="M100,0H0v65.625c0,9.506,3.353,17.611,10.059,24.316S24.87,100,34.375,100H100V0z"/>
</g>
</g></g><g transform="translate(480,512) scale(0.16,0.16)"><g transform="" style="fill: rgb(0, 0, 0);">
<polygon points="0,100 100,50 100,50 0,0 "/>
</g></g><g transform="translate(512,512) scale(0.16,0.16)"><g transform="" style="fill: rgb(0, 0, 0);">
<polygon points="99.999,49.999 99.998,49.999 49.999,0 0,49.999 -0.001,49.999 -0.001,50 0,50 49.999,99.999 99.998,50 99.999,50 
	99.998,50 "/>
</g></g><g transform="translate(0,0) scale(1.12, 1.12)"><g transform=" translate(0,100) scale(1,-1) " style="fill: rgb(0, 0, 0);">
<g>
</g>
<g>
	<path fill="none" d="M15.02,34.145L15.004,85H66.25C76.589,85,85,76.414,85,65.86V15H33.78C23.436,15,15.02,23.586,15.02,34.145z"
		/>
	<path d="M66.25,0H33.78C15.16,0,0.02,15.32,0.02,34.14L0,100h66.25C84.86,100,100,84.68,100,65.86V34.14V0H66.25z M85,65.86
		C85,76.414,76.589,85,66.25,85H15.004l0.016-50.855C15.02,23.586,23.436,15,33.78,15H85V65.86z"/>
</g>
</g></g><g transform="translate(416,0) scale(1.12, 1.12)"><g transform="" style="fill: rgb(0, 0, 0);">
<g>
</g>
<g>
	<path fill="none" d="M15.02,34.145L15.004,85H66.25C76.589,85,85,76.414,85,65.86V15H33.78C23.436,15,15.02,23.586,15.02,34.145z"
		/>
	<path d="M66.25,0H33.78C15.16,0,0.02,15.32,0.02,34.14L0,100h66.25C84.86,100,100,84.68,100,65.86V34.14V0H66.25z M85,65.86
		C85,76.414,76.589,85,66.25,85H15.004l0.016-50.855C15.02,23.586,23.436,15,33.78,15H85V65.86z"/>
</g>
</g></g><g transform="translate(0,416) scale(1.12, 1.12)"><g transform="" style="fill: rgb(0, 0, 0);">
<g>
</g>
<g>
	<path fill="none" d="M15.02,34.145L15.004,85H66.25C76.589,85,85,76.414,85,65.86V15H33.78C23.436,15,15.02,23.586,15.02,34.145z"
		/>
	<path d="M66.25,0H33.78C15.16,0,0.02,15.32,0.02,34.14L0,100h66.25C84.86,100,100,84.68,100,65.86V34.14V0H66.25z M85,65.86
		C85,76.414,76.589,85,66.25,85H15.004l0.016-50.855C15.02,23.586,23.436,15,33.78,15H85V65.86z"/>
</g>
</g></g><g transform="translate(32,32) scale(0.48, 0.48)"><g transform=" translate(0,100) scale(1,-1) " style="fill: rgb(0, 0, 0);">
<g>
</g>
<path d="M72.744-0.021H27.23c-2.341,0-4.612,0.297-6.771,0.875C15.679,2.11,11.418,4.648,8.04,8.09
	c-0.617,0.621-1.206,1.284-1.752,1.96c-3.883,4.767-6.21,10.903-6.21,17.561L0.05,99.979h72.694
	c14.971,0,27.138-12.397,27.138-27.63V27.625v-0.014l0.168-27.617C100.05-0.006,82.107-0.021,72.744-0.021z"/>
</g></g><g transform="translate(448,32) scale(0.48, 0.48)"><g transform="" style="fill: rgb(0, 0, 0);">
<g>
</g>
<path d="M72.744-0.021H27.23c-2.341,0-4.612,0.297-6.771,0.875C15.679,2.11,11.418,4.648,8.04,8.09
	c-0.617,0.621-1.206,1.284-1.752,1.96c-3.883,4.767-6.21,10.903-6.21,17.561L0.05,99.979h72.694
	c14.971,0,27.138-12.397,27.138-27.63V27.625v-0.014l0.168-27.617C100.05-0.006,82.107-0.021,72.744-0.021z"/>
</g></g><g transform="translate(32,448) scale(0.48, 0.48)"><g transform="" style="fill: rgb(0, 0, 0);">
<g>
</g>
<path d="M72.744-0.021H27.23c-2.341,0-4.612,0.297-6.771,0.875C15.679,2.11,11.418,4.648,8.04,8.09
	c-0.617,0.621-1.206,1.284-1.752,1.96c-3.883,4.767-6.21,10.903-6.21,17.561L0.05,99.979h72.694
	c14.971,0,27.138-12.397,27.138-27.63V27.625v-0.014l0.168-27.617C100.05-0.006,82.107-0.021,72.744-0.021z"/>
</g></g><g transform="translate(176,176) scale(0.34375,0.34375)" width="176" height="176"><svg xmlns:dc="http://purl.org/dc/elements/1.1/"
     xmlns:cc="http://creativecommons.org/ns#"
     xmlns:rdf="http://www.w3.org/1999/02/22-rdf-syntax-ns#"
     xmlns:svg="http://www.w3.org/2000/svg"
     xmlns="http://www.w3.org/2000/svg"
     xmlns:xlink="http://www.w3.org/1999/xlink"
     xmlns:sodipodi="http://sodipodi.sourceforge.net/DTD/sodipodi-0.dtd"
     xmlns:inkscape="http://www.inkscape.org/namespaces/inkscape"
     width="512mm"
     height="512mm"
     viewBox="0 0 512 512"
     version="1.1"
     id="svg8"
     inkscape:version="0.92.4 (5da689c313, 2019-01-14)"
     sodipodi:docname="Leaves01.svg">
    <defs id="defs2">
        <linearGradient inkscape:collect="always"
                        id="linearGradient4560">
            <stop style="stop-color:#ffdacc;stop-opacity:1"
                  offset="0"
                  id="stop4556" />
            <stop style="stop-color:#ff571a;stop-opacity:1"
                  offset="0.4"
                  id="stop4560" />
            <stop style="stop-color:#cc3600;stop-opacity:1"
                  offset="1"
                  id="stop4558" />
        </linearGradient>
        <radialGradient inkscape:collect="always"
                        xlink:href="#linearGradient4560"
                        id="radialGradient4564"
                        gradientUnits="userSpaceOnUse"
                        gradientTransform="matrix(2.3892297,-0.51131863,0.83525121,4.704312,-320.83116,564.27859)"
                        cx="270.78958"
                        cy="-91.194679"
                        fx="270.78958"
                        fy="-91.194679"
                        r="30.672874" />
        <radialGradient inkscape:collect="always"
                        xlink:href="#linearGradient4560"
                        id="radialGradient4564-5"
                        gradientUnits="userSpaceOnUse"
                        gradientTransform="matrix(1.5015868,-1.9274601,3.663713,3.0668229,177.47395,798.42465)"
                        cx="270.78958"
                        cy="-91.194679"
                        fx="270.78958"
                        fy="-91.194679"
                        r="30.672874" />
        <radialGradient inkscape:collect="always"
                        xlink:href="#linearGradient4560"
                        id="radialGradient4564-5-7"
                        gradientUnits="userSpaceOnUse"
                        gradientTransform="matrix(-0.08866525,-2.4417215,4.7778827,-0.00566662,709.70402,657.48661)"
                        cx="270.78958"
                        cy="-91.194679"
                        fx="270.78958"
                        fy="-91.194679"
                        r="30.672874" />
        <radialGradient inkscape:collect="always"
                        xlink:href="#linearGradient4560"
                        id="radialGradient4564-5-7-2"
                        gradientUnits="userSpaceOnUse"
                        gradientTransform="matrix(-1.6374298,-1.8134743,3.6564281,-3.0755047,1026.8226,207.41091)"
                        cx="270.78958"
                        cy="-91.194679"
                        fx="270.78958"
                        fy="-91.194679"
                        r="30.672874" />
        <radialGradient inkscape:collect="always"
                        xlink:href="#linearGradient4560"
                        id="radialGradient4564-5-7-2-0"
                        gradientUnits="userSpaceOnUse"
                        gradientTransform="matrix(-2.4200228,-0.33668232,0.82409011,-4.70628,980.44651,-341.20698)"
                        cx="270.78958"
                        cy="-91.194679"
                        fx="270.78958"
                        fy="-91.194679"
                        r="30.672874" />
        <radialGradient inkscape:collect="always"
                        xlink:href="#linearGradient4560"
                        id="radialGradient4564-5-7-2-0-9"
                        gradientUnits="userSpaceOnUse"
                        gradientTransform="matrix(-2.0702602,1.2976471,-2.3938488,-4.1349345,592.2756,-731.66272)"
                        cx="270.78958"
                        cy="-91.194679"
                        fx="270.78958"
                        fy="-91.194679"
                        r="30.672874" />
        <radialGradient inkscape:collect="always"
                        xlink:href="#linearGradient4560"
                        id="radialGradient4564-5-7-2-0-9-4"
                        gradientUnits="userSpaceOnUse"
                        gradientTransform="matrix(-0.75179984,2.324793,-4.4916792,-1.6288072,43.93929,-781.25769)"
                        cx="270.78958"
                        cy="-91.194679"
                        fx="270.78958"
                        fy="-91.194679"
                        r="30.672874" />
        <radialGradient inkscape:collect="always"
                        xlink:href="#linearGradient4560"
                        id="radialGradient4564-5-7-2-0-9-4-4"
                        gradientUnits="userSpaceOnUse"
                        gradientTransform="matrix(0.91843605,2.2641424,-4.4878031,1.6394571,-407.98971,-466.78586)"
                        cx="270.78958"
                        cy="-91.194679"
                        fx="270.78958"
                        fy="-91.194679"
                        r="30.672874" />
        <radialGradient inkscape:collect="always"
                        xlink:href="#linearGradient4560"
                        id="radialGradient4564-5-7-2-0-9-4-4-1"
                        gradientUnits="userSpaceOnUse"
                        gradientTransform="matrix(2.1589255,1.1440744,-2.384034,4.1406013,-552.04882,64.607891)"
                        cx="270.78958"
                        cy="-91.194679"
                        fx="270.78958"
                        fy="-91.194679"
                        r="30.672874" />
    </defs>
    <sodipodi:namedview id="base"
                        pagecolor="#ffffff"
                        bordercolor="#666666"
                        borderopacity="1.0"
                        inkscape:pageopacity="0.0"
                        inkscape:pageshadow="2"
                        inkscape:zoom="1"
                        inkscape:cx="1067.6892"
                        inkscape:cy="864.79761"
                        inkscape:document-units="mm"
                        inkscape:current-layer="layer1"
                        showgrid="false"
                        inkscape:pagecheckerboard="true"
                        showguides="false"
                        inkscape:window-width="3840"
                        inkscape:window-height="2066"
                        inkscape:window-x="2869"
                        inkscape:window-y="-11"
                        inkscape:window-maximized="1" />
    <metadata id="metadata5">
        <rdf:RDF>
            <cc:Work rdf:about="">
                <dc:format>image/svg+xml</dc:format>
                <dc:type rdf:resource="http://purl.org/dc/dcmitype/StillImage" />
                <dc:title></dc:title>
            </cc:Work>
        </rdf:RDF>
    </metadata>
    <g inkscape:label="Layer 1"
       inkscape:groupmode="layer"
       id="layer1"
       transform="translate(0,215)">
        <g id="g5862"
           transform="matrix(1.1342731,0.2122811,-0.46070845,1.204141,-34.756157,-2.2982351)">
            <path sodipodi:nodetypes="cacsc"
                  inkscape:connector-curvature="0"
                  id="path828"
                  d="m 216.5003,-212.45775 c -9.04856,28.40539 -13.44191,62.65926 -9.48009,93.82354 5.23377,41.169769 42.95671,115.4448034 42.95671,115.4448034 0,0 9.94003,-42.6229814 5.14971,-116.8441034 -3.03806,-47.07147 -16.68091,-66.75966 -38.62633,-92.42424 z"
                  style="fill:url(#radialGradient4564);fill-opacity:1;stroke:#ff4500;stroke-width:0.25251332;stroke-linecap:butt;stroke-linejoin:miter;stroke-miterlimit:4;stroke-dasharray:none;stroke-opacity:1" />
            <path sodipodi:nodetypes="cacsc"
                  inkscape:connector-curvature="0"
                  id="path828-8"
                  d="m 89.81724,-141.9799 c 11.32704,27.57609 29.9795,56.640073 53.04644,77.966687 30.47272,28.173667 107.11324,60.8238064 107.11324,60.8238064 0,0 -19.78302,-39.0404264 -71.16104,-92.8179404 -32.58424,-34.106013 -55.6906,-40.418593 -88.99864,-45.972553 z"
                  style="fill:url(#radialGradient4564-5);fill-opacity:1;stroke:#ff4500;stroke-width:0.25251332;stroke-linecap:butt;stroke-linejoin:miter;stroke-miterlimit:4;stroke-dasharray:none;stroke-opacity:1" />
            <path sodipodi:nodetypes="cacsc"
                  inkscape:connector-curvature="0"
                  id="path828-8-3"
                  d="m 38.07468,-6.5604396 c 26.40259,13.8436369 59.37317,24.1183676 90.75195,25.6283546 41.45314,1.994797 121.15029,-22.2573216 121.15029,-22.2573216 0,0 -40.24938,-17.1904244 -114.17474,-25.3612324 -46.8839,-5.181982 -68.64205,4.834783 -97.7275,21.9901994 z"
                  style="        fill: url(#radialGradient4564-5-7);
        fill-opacity: 1;
        stroke: #ff4500;
        stroke-width: 0.25251332;
        stroke-linecap: butt;
        stroke-linejoin: miter;
        stroke-miterlimit: 4;
        stroke-dasharray: none;
        stroke-opacity: 1" />
            <path sodipodi:nodetypes="cacsc"
                  inkscape:connector-curvature="0"
                  id="path828-8-3-2"
                  d="m 85.48352,130.43637 c 29.12408,-6.36642 60.98547,-19.6886 85.99362,-38.701769 33.03719,-25.117465 78.49978,-94.9240076 78.49978,-94.9240076 0,0 -41.88261,12.70317 -103.76482,53.9622776 -39.24607,26.166763 -49.47512,47.825924 -60.72858,79.663499 z"
                  style="fill:url(#radialGradient4564-5-7-2);fill-opacity:1;stroke:#ff4500;stroke-width:0.25251332;stroke-linecap:butt;stroke-linejoin:miter;stroke-miterlimit:4;stroke-dasharray:none;stroke-opacity:1" />
            <path sodipodi:nodetypes="cacsc"
                  inkscape:connector-curvature="0"
                  id="path828-8-3-2-0"
                  d="m 209.86066,204.9082 c 18.21808,-23.59756 34.06199,-54.28305 40.99791,-84.92291 9.16277,-40.476988 -0.88165,-123.1746966 -0.88165,-123.1746966 0,0 -23.9185,36.6528146 -44.80218,108.0362466 -13.24457,45.27179 -7.15823,68.43878 4.68592,100.06136 z"
                  style="fill:url(#radialGradient4564-5-7-2-0);fill-opacity:1;stroke:#ff4500;stroke-width:0.25251332;stroke-linecap:butt;stroke-linejoin:miter;stroke-miterlimit:4;stroke-dasharray:none;stroke-opacity:1" />
            <path sodipodi:nodetypes="cacsc"
                  inkscape:connector-curvature="0"
                  id="path828-8-3-2-0-7"
                  d="M 353.00865,182.00884 C 351.79629,152.2217 344.20917,118.53099 329.82747,90.601172 310.82846,53.704278 249.97692,-3.1894066 249.97692,-3.1894066 c 0,0 5.23735,43.4522026 35.1239,111.5588566 18.95422,43.19365 38.50808,57.02837 67.90783,73.63939 z"
                  style="fill:url(#radialGradient4564-5-7-2-0-9);fill-opacity:1;stroke:#ff4500;stroke-width:0.25251332;stroke-linecap:butt;stroke-linejoin:miter;stroke-miterlimit:4;stroke-dasharray:none;stroke-opacity:1" />
            <path sodipodi:nodetypes="cacsc"
                  inkscape:connector-curvature="0"
                  id="path828-8-3-2-0-7-5"
                  d="M 447.94695,72.453164 C 427.87142,50.41418 400.40338,29.482498 371.43342,17.331399 333.16246,1.2790684 249.97692,-3.1894066 249.97692,-3.1894066 c 0,0 31.94258,29.9198156 98.61513,62.8818266 42.28412,20.904722 66.15603,18.933753 99.3549,12.760744 z"
                  style="fill:url(#radialGradient4564-5-7-2-0-9-4);fill-opacity:1;stroke:#ff4500;stroke-width:0.25251332;stroke-linecap:butt;stroke-linejoin:miter;stroke-miterlimit:4;stroke-dasharray:none;stroke-opacity:1" />
            <path sodipodi:nodetypes="cacsc"
                  inkscape:connector-curvature="0"
                  id="path828-8-3-2-0-7-5-8"
                  d="m 450.25287,-72.496527 c -29.54514,-3.97854 -64.04151,-2.35702 -94.04436,6.95623 -39.6355,12.303302 -106.23159,62.3508904 -106.23159,62.3508904 0,0 43.70151,2.387607 115.96322,-15.2183174 45.82881,-11.165764 62.84885,-28.020175 84.31273,-54.088803 z"
                  style="fill:url(#radialGradient4564-5-7-2-0-9-4-4);fill-opacity:1;stroke:#ff4500;stroke-width:0.25251332;stroke-linecap:butt;stroke-linejoin:miter;stroke-miterlimit:4;stroke-dasharray:none;stroke-opacity:1" />
            <path sodipodi:nodetypes="cacsc"
                  inkscape:connector-curvature="0"
                  id="path828-8-3-2-0-7-5-8-6"
                  d="m 358.84744,-185.01664 c -25.19025,15.94351 -50.57371,39.35951 -67.57078,65.77933 -22.45415,34.902078 -41.29974,116.0479034 -41.29974,116.0479034 0,0 35.01202,-26.2617744 79.05083,-86.1976354 27.92969,-38.011658 30.13399,-61.863148 29.81969,-95.629598 z"
                  style="fill:url(#radialGradient4564-5-7-2-0-9-4-4-1);fill-opacity:1;stroke:#ff4500;stroke-width:0.25251332;stroke-linecap:butt;stroke-linejoin:miter;stroke-miterlimit:4;stroke-dasharray:none;stroke-opacity:1" />
        </g>
    </g>
</svg>
</g></g></svg>