<?xml version="1.0" encoding="UTF-8" standalone="no"?>
<!-- Created with Inkscape (http://www.inkscape.org/) -->

<svg
   xmlns:dc="http://purl.org/dc/elements/1.1/"
   xmlns:cc="http://creativecommons.org/ns#"
   xmlns:rdf="http://www.w3.org/1999/02/22-rdf-syntax-ns#"
   xmlns:svg="http://www.w3.org/2000/svg"
   xmlns="http://www.w3.org/2000/svg"
   xmlns:sodipodi="http://sodipodi.sourceforge.net/DTD/sodipodi-0.dtd"
   xmlns:inkscape="http://www.inkscape.org/namespaces/inkscape"
   version="1.1"
   width="540"
   height="540"
   id="svg2"
   sodipodi:docname="vibrant-gallery.svg"
   inkscape:version="0.92.4 (5da689c313, 2019-01-14)"
   inkscape:export-filename="C:\Development\WaterHub\Gallery.Web\wwwroot\images\vibrant-gallery_192.png"
   inkscape:export-xdpi="34.130001"
   inkscape:export-ydpi="34.130001">
  <sodipodi:namedview
     pagecolor="#ffffff"
     bordercolor="#666666"
     borderopacity="1"
     objecttolerance="10"
     gridtolerance="10"
     guidetolerance="10"
     inkscape:pageopacity="0"
     inkscape:pageshadow="2"
     inkscape:window-width="3840"
     inkscape:window-height="2066"
     id="namedview18"
     showgrid="false"
     inkscape:pagecheckerboard="true"
     inkscape:zoom="2"
     inkscape:cx="195.27512"
     inkscape:cy="270"
     inkscape:window-x="2869"
     inkscape:window-y="-11"
     inkscape:window-maximized="1"
     inkscape:current-layer="svg2" />
  <defs
     id="defs4" />
  <metadata
     id="metadata6">
    <rdf:RDF>
      <cc:Work>
        <dc:format>image/svg+xml</dc:format>
        <dc:type
           rdf:resource="http://purl.org/dc/dcmitype/StillImage" />
        <dc:creator>
          <cc:Agent>
            <dc:title>MarianSigler, mariansigler@gmail.com</dc:title>
          </cc:Agent>
        </dc:creator>
        <cc:license
           rdf:resource="http://web.resource.org/cc/PublicDomain" />
        <dc:title></dc:title>
      </cc:Work>
      <cc:License
         rdf:about="http://web.resource.org/cc/PublicDomain">
        <cc:permits
           rdf:resource="http://web.resource.org/cc/Reproduction" />
        <cc:permits
           rdf:resource="http://web.resource.org/cc/Distribution" />
        <cc:permits
           rdf:resource="http://web.resource.org/cc/DerivativeWorks" />
        <cc:requires
           rdf:resource="http://web.resource.org/cc/ShareAlike" />
      </cc:License>
    </rdf:RDF>
  </metadata>
  <path
     style="fill:#fefe33"
     d="M 490.20508 192.09961 L 414.83594 218.76172 A 153.79581 153.79581 0 0 1 423.79492 270 A 153.79581 153.79581 0 0 1 414.28711 322.67969 L 487.31445 349.3418 L 511.48242 334.70508 C 523.38809 290.27249 523.38809 249.72751 511.48242 205.29492 L 490.20508 192.09961 z "
     id="path16" />
  <path
     style="fill:#fb9902"
     d="M 334.70508 28.517578 L 313.06445 40.507812 L 298.34766 118.93555 A 153.79581 153.79581 0 0 1 386.68359 170.08594 L 447.40039 118.0957 L 446.77734 93.222656 C 414.25043 60.695745 379.13767 40.423254 334.70508 28.517578 z "
     id="path20" />
  <path
     style="fill:#fabc02"
     d="M 446.77734 93.222656 L 378.68164 161.31836 A 153.79581 153.79581 0 0 1 418.49414 230.21094 L 511.48242 205.29492 C 499.57674 160.86233 479.30426 125.74957 446.77734 93.222656 z "
     id="path18" />
  <path
     style="fill:#fe2712"
     d="M 205.29492 28.517578 C 160.86233 40.423255 125.74957 60.695744 93.222656 93.222656 L 92.740234 120.05664 L 152.5918 170.68555 A 153.79581 153.79581 0 0 1 243.92383 118.43359 L 231.20508 44.501953 L 205.29492 28.517578 z "
     id="path28" />
  <path
     style="fill:#fd5308"
     d="M 270 19.589844 C 248.75577 19.589844 227.51122 22.56474 205.29492 28.517578 L 230.21094 121.50586 A 153.79581 153.79581 0 0 1 270 116.20508 A 153.79581 153.79581 0 0 1 309.75781 121.62109 L 334.70508 28.517578 C 312.48878 22.56474 291.24423 19.589844 270 19.589844 z "
     id="path22" />
  <path
     style="fill:#8601af"
     d="M 56.310547 186.62695 L 28.517578 205.29492 C 16.611902 249.72751 16.611902 290.27249 28.517578 334.70508 L 55.855469 349.4043 L 125.89453 323.43359 A 153.79581 153.79581 0 0 1 116.20508 270 A 153.79581 153.79581 0 0 1 126.86719 214.15625 L 56.310547 186.62695 z "
     id="path26" />
  <path
     style="fill:#a7194b"
     d="M 93.222656 93.222656 C 60.695744 125.74957 40.423254 160.86233 28.517578 205.29492 L 121.62109 230.24219 A 153.79581 153.79581 0 0 1 161.31836 161.31836 L 93.222656 93.222656 z "
     id="path30" />
  <path
     style="fill:#0247fe"
     d="M 152.98047 369.5332 L 95.308594 418.58789 L 93.222656 446.77734 C 125.74957 479.30425 160.86233 499.57674 205.29492 511.48242 L 231.04492 499.70703 L 244.31445 421.4668 A 153.79581 153.79581 0 0 1 152.98047 369.5332 z "
     id="path8" />
  <path
     style="fill:#3d01a4"
     d="M 121.50586 309.78906 L 28.517578 334.70508 C 40.423255 379.13767 60.695744 414.25042 93.222656 446.77734 L 161.31836 378.68164 A 153.79581 153.79581 0 0 1 121.50586 309.78906 z "
     id="path24" />
  <path
     style="fill:#66b032"
     d="M 386.63477 370.14453 A 153.79581 153.79581 0 0 1 297.04492 421.35547 L 310.45312 496.38867 L 334.70508 511.48242 C 379.13767 499.57674 414.25042 479.30425 446.77734 446.77734 L 446.04688 421.15625 L 386.63477 370.14453 z "
     id="path12" />
  <path
     style="fill:#0391ce"
     d="M 230.24219 418.37891 L 205.29492 511.48242 C 249.72751 523.38809 290.27249 523.38809 334.70508 511.48242 L 309.78906 418.49414 A 153.79581 153.79581 0 0 1 270 423.79492 A 153.79581 153.79581 0 0 1 230.24219 418.37891 z "
     id="path10" />
  <path
     style="fill:#d0ea2b"
     d="M 418.37891 309.75781 A 153.79581 153.79581 0 0 1 378.68164 378.68164 L 446.77734 446.77734 C 479.30425 414.25042 499.57674 379.13767 511.48242 334.70508 L 418.37891 309.75781 z "
     id="path14" />
</svg>
